<svg id="svg" version="1.1" xmlns="http://www.w3.org/2000/svg" xmlns:xlink="http://www.w3.org/1999/xlink" width="400" height="311.25" viewBox="0, 0, 400,311.25"><g id="svgg"><path id="path0" d="M27.653 5.448 C 5.218 9.695,-3.210 42.168,14.227 57.176 C 16.933 59.505,38.609 76.388,39.227 76.648 C 39.481 76.754,51.035 85.682,64.903 96.488 C 147.891 161.149,156.587 167.849,157.039 167.474 C 157.283 167.271,157.617 167.189,157.781 167.291 C 157.946 167.392,158.440 167.338,158.880 167.171 C 159.320 167.004,160.347 166.801,161.163 166.721 C 161.978 166.640,162.646 166.556,162.646 166.534 C 162.646 166.512,163.276 166.447,164.047 166.391 C 173.000 165.738,185.837 161.887,185.837 159.853 C 185.837 159.167,183.145 156.629,178.602 153.031 C 174.953 150.142,77.806 74.736,44.514 48.951 C 27.070 35.442,28.019 36.325,28.017 33.587 C 28.014 30.191,31.978 27.716,34.907 29.284 C 35.310 29.499,51.889 42.286,71.750 57.699 C 91.610 73.111,114.093 90.555,121.712 96.463 C 129.331 102.370,145.510 114.925,157.665 124.362 C 193.679 152.320,192.965 151.789,194.977 152.116 C 196.449 152.354,199.298 148.583,200.956 144.202 C 201.885 141.749,203.267 136.256,203.268 135.019 C 203.268 134.549,203.374 134.163,203.502 134.163 C 203.630 134.162,203.773 133.644,203.818 133.011 C 203.863 132.378,204.020 131.783,204.167 131.689 C 204.313 131.595,204.392 131.141,204.341 130.680 C 204.277 130.097,204.407 129.811,204.770 129.739 C 205.098 129.674,202.100 127.152,196.699 122.950 C 54.398 12.232,53.952 11.886,51.804 10.389 C 45.273 5.840,35.812 3.904,27.653 5.448 M252.685 166.926 C 252.614 167.140,252.217 167.340,251.803 167.371 C 251.008 167.431,249.475 167.616,247.160 167.931 C 246.389 168.036,245.198 168.178,244.514 168.245 C 236.279 169.062,224.125 172.825,224.125 174.559 C 224.125 175.756,270.256 212.607,271.754 212.607 C 271.955 212.607,272.476 212.327,272.911 211.984 C 274.087 211.059,274.498 211.176,277.890 213.389 L 280.995 215.416 282.164 214.928 C 283.420 214.403,284.792 214.531,285.981 215.283 C 286.360 215.523,287.298 215.720,288.065 215.720 C 290.116 215.720,291.131 216.694,291.350 218.873 L 291.518 220.545 292.918 220.452 C 294.043 220.378,294.612 220.546,295.804 221.305 C 296.621 221.826,297.882 222.342,298.606 222.453 C 300.268 222.706,300.909 223.024,302.211 224.240 L 303.254 225.214 303.105 220.078 C 302.901 213.037,301.720 208.726,298.746 204.167 C 296.311 200.432,295.150 199.453,270.195 180.089 C 262.062 173.779,254.825 168.149,254.111 167.577 C 253.257 166.892,252.770 166.670,252.685 166.926 M213.164 182.957 C 211.796 184.413,209.570 188.121,208.606 190.545 C 207.407 193.566,206.988 195.141,206.510 198.444 C 206.411 199.128,206.250 199.899,206.153 200.156 C 206.057 200.412,206.010 200.953,206.051 201.358 C 206.097 201.820,205.998 202.016,205.787 201.885 C 205.548 201.737,205.540 201.915,205.759 202.490 C 205.929 202.938,205.957 203.235,205.820 203.151 C 205.684 203.066,205.403 203.269,205.196 203.600 C 204.899 204.076,204.902 204.204,205.211 204.212 C 205.449 204.218,205.383 204.389,205.044 204.646 C 204.358 205.167,201.244 202.637,231.086 225.806 C 257.522 246.331,257.565 246.363,261.596 248.266 C 268.699 251.620,280.211 251.653,286.812 248.339 C 287.859 247.814,288.912 247.490,289.269 247.584 C 289.636 247.680,288.957 246.820,287.630 245.508 C 285.453 243.356,285.352 243.296,285.047 243.969 C 284.473 245.236,283.589 244.860,280.236 241.923 C 279.195 241.012,278.261 239.934,278.159 239.528 C 278.053 239.107,276.801 237.828,275.251 236.556 C 271.335 233.344,270.676 232.000,270.400 226.665 C 270.251 223.793,272.877 226.107,247.004 206.044 C 213.688 180.209,214.942 181.065,213.164 182.957 M110.024 226.582 C 109.519 226.893,108.838 227.448,108.512 227.815 C 107.524 228.927,108.664 228.640,110.065 227.424 C 111.441 226.229,111.417 225.724,110.024 226.582 M296.821 241.538 C 296.484 242.083,299.182 244.252,299.757 243.897 C 300.216 243.614,299.782 242.953,298.530 242.030 C 297.370 241.174,297.095 241.095,296.821 241.538 " stroke="none" fill="#f30a0c" fill-rule="evenodd"></path><path id="path1" d="M361.036 10.738 C 356.402 11.518,351.306 13.816,347.050 17.045 C 341.881 20.967,320.734 37.774,320.156 38.420 C 319.495 39.158,289.621 62.879,289.352 62.879 C 289.168 62.879,206.901 128.063,205.623 129.222 C 205.447 129.381,205.621 129.794,206.059 130.260 C 206.677 130.918,206.713 131.062,206.296 131.222 C 205.872 131.385,205.892 131.495,206.442 132.045 C 206.911 132.514,206.977 132.742,206.696 132.916 C 206.437 133.077,206.421 133.217,206.646 133.356 C 206.828 133.469,206.898 133.766,206.801 134.018 C 206.705 134.269,206.746 134.475,206.893 134.475 C 207.235 134.475,207.446 138.110,207.426 143.658 C 207.408 148.832,206.664 151.662,204.445 155.000 C 202.438 158.018,202.067 158.094,198.847 156.153 L 197.071 155.082 197.242 155.937 C 197.545 157.452,191.801 161.695,190.098 161.214 C 189.305 160.990,189.385 161.140,190.955 162.836 C 193.159 165.217,193.039 165.666,189.883 166.830 C 189.284 167.052,188.374 167.412,187.860 167.631 C 184.832 168.924,177.304 169.969,172.451 169.769 C 169.948 169.666,163.545 169.345,161.245 169.208 C 160.304 169.152,159.323 169.256,159.066 169.440 C 158.680 169.717,158.667 169.700,158.988 169.339 C 159.545 168.715,159.470 168.252,158.890 168.733 C 158.486 169.068,158.248 169.046,157.495 168.601 L 156.588 168.065 141.563 179.971 C 110.933 204.239,111.045 204.126,108.755 213.045 C 107.971 216.098,107.658 224.436,108.327 224.436 C 108.516 224.436,108.663 222.811,108.702 220.311 L 108.765 216.187 108.935 220.145 C 109.070 223.286,109.189 224.052,109.510 223.852 C 109.733 223.714,110.712 223.726,111.686 223.879 C 113.712 224.197,114.135 224.059,116.509 222.309 C 118.998 220.474,119.222 220.393,120.684 220.783 C 121.932 221.116,122.022 221.087,123.696 219.824 C 124.825 218.971,125.741 218.521,126.350 218.521 C 127.486 218.521,131.003 215.970,131.609 214.706 C 132.160 213.556,132.747 213.631,134.013 215.013 L 135.077 216.173 136.099 215.208 C 136.661 214.677,149.658 204.257,164.981 192.053 C 180.304 179.849,193.751 169.109,194.864 168.188 C 195.977 167.266,198.613 165.152,200.723 163.489 C 213.950 153.066,226.937 142.753,257.257 118.599 C 321.896 67.105,360.626 36.263,361.868 35.296 C 365.653 32.349,368.660 32.644,370.442 36.136 C 372.053 39.294,372.044 39.303,354.676 53.142 C 317.204 83.000,266.754 123.232,236.887 147.075 C 168.586 201.602,144.884 220.447,144.329 220.665 C 143.853 220.853,143.968 220.987,145.011 221.457 C 147.201 222.445,147.085 223.030,144.267 225.209 C 143.004 226.185,142.309 226.935,142.391 227.232 C 142.463 227.492,142.614 228.161,142.726 228.720 C 142.838 229.278,143.812 230.845,144.889 232.201 C 147.760 235.815,147.784 237.358,145.004 239.389 C 142.017 241.572,140.939 241.330,138.039 237.826 C 135.259 234.465,133.459 233.720,131.697 235.203 C 130.508 236.203,130.505 236.507,131.673 237.977 C 133.582 240.379,132.743 242.730,129.131 245.097 C 127.789 245.976,125.642 245.471,124.479 244.003 C 123.199 242.387,121.839 242.902,120.501 245.510 C 119.384 247.690,128.222 250.429,136.342 250.420 C 146.489 250.410,148.405 249.482,164.358 236.851 C 194.018 213.369,204.058 205.359,204.150 205.108 C 204.566 203.974,200.666 206.905,180.789 222.664 C 156.469 241.945,153.256 244.448,152.159 244.969 C 151.477 245.292,151.479 245.281,152.202 244.756 C 159.384 239.542,203.510 204.378,203.160 204.148 C 202.954 204.012,202.999 203.748,203.288 203.397 C 203.704 202.893,203.681 202.884,202.957 203.268 C 202.291 203.622,202.229 203.618,202.528 203.242 C 202.922 202.746,202.995 200.156,202.616 200.156 C 202.480 200.156,202.357 199.350,202.342 198.366 C 202.327 197.381,202.284 194.685,202.247 192.374 C 202.149 186.277,202.586 184.189,204.737 180.487 C 207.229 176.197,207.735 176.108,212.451 179.127 C 212.965 179.456,213.210 179.531,212.996 179.294 C 212.097 178.300,212.555 177.557,215.462 175.295 C 218.357 173.043,219.169 172.741,220.487 173.428 C 220.861 173.623,220.537 173.218,219.767 172.529 C 216.770 169.847,216.794 169.156,219.931 167.829 C 225.915 165.298,230.751 164.658,241.712 164.948 C 243.938 165.007,245.969 165.003,246.226 164.940 C 246.482 164.877,246.669 164.965,246.641 165.136 C 246.596 165.404,247.726 165.527,250.832 165.593 C 251.225 165.601,251.866 165.817,252.257 166.073 C 253.030 166.580,248.320 170.258,335.653 100.934 C 346.707 92.160,355.826 84.981,355.918 84.981 C 356.094 84.981,380.379 65.771,384.515 62.359 C 391.611 56.508,394.417 50.187,394.409 40.078 C 394.393 20.026,380.166 7.519,361.036 10.738 M365.058 11.429 C 364.588 11.501,363.817 11.501,363.346 11.429 C 362.875 11.358,363.261 11.300,364.202 11.300 C 365.144 11.300,365.529 11.358,365.058 11.429 M369.728 11.429 C 369.257 11.501,368.486 11.501,368.016 11.429 C 367.545 11.358,367.930 11.300,368.872 11.300 C 369.813 11.300,370.198 11.358,369.728 11.429 M374.582 12.165 C 375.240 12.347,375.725 12.550,375.660 12.615 C 375.596 12.679,374.847 12.542,373.997 12.308 C 373.147 12.075,372.661 11.873,372.918 11.858 C 373.175 11.844,373.924 11.982,374.582 12.165 M356.083 13.177 C 355.627 13.538,350.410 16.190,350.661 15.933 C 351.068 15.518,355.557 13.084,355.927 13.078 C 356.084 13.076,356.154 13.120,356.083 13.177 M379.429 14.196 C 383.405 16.374,387.387 20.193,389.700 24.047 C 390.861 25.981,390.220 25.359,388.818 23.192 C 386.455 19.538,382.990 16.431,378.677 14.098 C 377.650 13.543,376.938 13.085,377.095 13.081 C 377.252 13.077,378.302 13.579,379.429 14.196 M349.261 17.121 C 348.661 17.625,348.051 18.041,347.905 18.046 C 347.584 18.056,347.668 17.991,334.786 28.198 C 329.136 32.674,324.044 36.775,323.471 37.310 C 322.214 38.484,286.754 66.615,286.531 66.615 C 286.398 66.615,243.870 100.288,214.988 123.262 C 210.220 127.054,206.273 130.112,206.217 130.056 C 206.161 130.000,209.852 126.988,214.419 123.363 C 266.811 81.780,286.755 65.992,286.892 65.992 C 287.158 65.992,321.340 38.894,322.086 38.092 C 322.463 37.686,322.861 37.354,322.970 37.354 C 323.079 37.354,323.401 37.088,323.686 36.763 C 324.127 36.258,339.679 23.874,345.821 19.136 C 347.679 17.704,349.826 16.274,350.195 16.224 C 350.280 16.213,349.860 16.616,349.261 17.121 M392.797 31.440 C 392.797 31.734,392.698 31.676,392.529 31.284 C 392.382 30.942,392.262 30.451,392.262 30.195 C 392.262 29.900,392.361 29.958,392.529 30.350 C 392.676 30.693,392.797 31.183,392.797 31.440 M393.689 37.426 C 393.619 37.986,393.561 37.603,393.559 36.576 C 393.558 35.549,393.614 35.091,393.685 35.559 C 393.756 36.026,393.758 36.867,393.689 37.426 M393.686 44.125 C 393.615 44.595,393.556 44.210,393.556 43.268 C 393.556 42.327,393.615 41.942,393.686 42.412 C 393.757 42.883,393.757 43.654,393.686 44.125 M392.062 50.643 C 391.784 51.124,391.651 51.237,391.766 50.895 C 391.882 50.553,392.056 49.996,392.152 49.658 C 392.248 49.320,392.381 49.206,392.448 49.406 C 392.514 49.605,392.341 50.162,392.062 50.643 M390.335 54.225 C 389.587 55.485,387.879 57.599,386.480 58.997 C 384.588 60.889,384.429 61.008,385.837 59.480 C 386.864 58.365,387.791 57.378,387.897 57.287 C 388.313 56.930,391.284 52.197,391.284 51.893 C 391.284 51.715,391.373 51.658,391.481 51.767 C 391.590 51.875,391.074 52.981,390.335 54.225 M382.378 62.818 C 380.809 64.238,357.424 82.802,357.204 82.802 C 357.117 82.802,347.470 90.401,335.765 99.689 C 296.821 130.593,252.924 165.378,252.451 165.709 C 248.796 168.267,324.105 108.476,369.031 73.152 C 375.454 68.101,381.303 63.450,382.028 62.815 C 382.753 62.180,383.416 61.661,383.502 61.660 C 383.588 61.660,383.082 62.181,382.378 62.818 M157.339 168.985 C 157.176 169.133,151.580 173.572,144.903 178.849 C 113.535 203.639,112.986 204.155,110.330 211.359 C 110.108 211.960,109.917 212.234,109.905 211.968 C 109.861 210.991,112.333 206.469,114.182 204.144 C 116.439 201.306,119.551 198.603,131.211 189.353 C 136.002 185.552,143.774 179.365,148.482 175.604 C 153.191 171.843,157.176 168.754,157.339 168.741 C 157.525 168.725,157.525 168.815,157.339 168.985 M151.284 245.432 C 151.284 245.628,147.397 247.783,147.052 247.778 C 146.897 247.776,147.751 247.222,148.949 246.546 C 151.318 245.211,151.284 245.228,151.284 245.432 M126.523 248.011 C 127.558 248.410,127.984 248.655,127.471 248.554 C 126.280 248.321,121.712 246.205,121.712 245.887 C 121.712 245.755,122.371 246.015,123.177 246.466 C 123.982 246.916,125.488 247.611,126.523 248.011 M143.658 248.880 C 142.973 249.106,141.992 249.288,141.479 249.285 C 140.837 249.280,141.081 249.155,142.257 248.885 C 144.506 248.367,145.221 248.365,143.658 248.880 M131.284 249.242 C 130.984 249.320,130.494 249.320,130.195 249.242 C 129.895 249.164,130.140 249.099,130.739 249.099 C 131.339 249.099,131.584 249.164,131.284 249.242 M133.930 249.558 C 133.545 249.632,132.914 249.632,132.529 249.558 C 132.144 249.484,132.459 249.423,133.230 249.423 C 134.000 249.423,134.315 249.484,133.930 249.558 M140.004 249.552 C 139.706 249.630,139.146 249.633,138.758 249.559 C 138.371 249.484,138.615 249.420,139.300 249.417 C 139.984 249.414,140.301 249.474,140.004 249.552 " stroke="none" fill="#0cafde" fill-rule="evenodd"></path><path id="path2" d="M365.370 10.186 C 365.926 10.255,366.837 10.255,367.393 10.186 C 367.949 10.117,367.494 10.061,366.381 10.061 C 365.268 10.061,364.813 10.117,365.370 10.186 M361.790 10.487 C 362.089 10.565,362.580 10.565,362.879 10.487 C 363.179 10.409,362.934 10.345,362.335 10.345 C 361.735 10.345,361.490 10.409,361.790 10.487 M376.923 11.997 C 377.499 12.247,378.059 12.446,378.168 12.440 C 378.573 12.418,376.791 11.540,376.342 11.541 C 376.086 11.541,376.347 11.747,376.923 11.997 M353.230 12.941 C 352.023 13.595,352.159 13.821,353.385 13.198 C 354.559 12.601,354.766 12.447,354.371 12.464 C 354.214 12.471,353.700 12.685,353.230 12.941 M378.547 12.567 C 378.868 12.854,380.700 13.696,380.700 13.557 C 380.700 13.378,378.975 12.451,378.641 12.451 C 378.518 12.451,378.476 12.504,378.547 12.567 M381.012 13.790 C 381.012 13.861,381.747 14.408,382.646 15.005 C 385.590 16.960,388.215 19.798,390.507 23.502 C 391.142 24.529,391.573 25.102,391.464 24.775 C 390.452 21.743,381.012 11.822,381.012 13.790 M350.350 14.484 C 349.837 14.738,348.996 15.306,348.482 15.744 C 347.727 16.390,347.827 16.360,349.006 15.586 C 349.807 15.061,350.604 14.630,350.777 14.630 C 350.950 14.630,351.178 14.490,351.284 14.319 C 351.531 13.919,351.470 13.930,350.350 14.484 M345.058 18.240 C 343.860 19.183,342.669 20.178,342.412 20.451 C 342.156 20.724,343.112 20.055,344.538 18.964 C 346.797 17.237,347.678 16.464,347.334 16.511 C 347.281 16.518,346.257 17.296,345.058 18.240 M335.720 25.715 L 334.475 26.829 335.798 25.840 C 336.936 24.988,337.347 24.578,337.043 24.596 C 337.000 24.599,336.405 25.102,335.720 25.715 M326.693 32.875 L 325.447 33.989 326.770 32.999 C 327.909 32.148,328.320 31.737,328.016 31.756 C 327.973 31.758,327.377 32.262,326.693 32.875 M394.507 37.198 C 394.506 38.739,394.559 39.409,394.624 38.686 C 394.690 37.964,394.690 36.703,394.626 35.885 C 394.562 35.066,394.508 35.658,394.507 37.198 M320.426 37.751 C 319.548 38.474,318.652 39.346,318.437 39.689 L 318.044 40.311 318.766 39.689 C 320.032 38.596,322.295 36.420,322.157 36.428 C 322.083 36.432,321.305 37.028,320.426 37.751 M394.507 42.802 C 394.506 44.342,394.559 45.012,394.624 44.290 C 394.690 43.567,394.690 42.306,394.626 41.488 C 394.562 40.670,394.508 41.261,394.507 42.802 M311.440 45.170 C 309.070 47.084,308.689 47.616,310.914 45.903 C 312.633 44.580,313.412 43.865,313.092 43.902 C 313.039 43.908,312.296 44.479,311.440 45.170 M302.412 52.330 C 300.043 54.244,299.662 54.775,301.887 53.063 C 303.606 51.740,304.385 51.025,304.065 51.062 C 304.012 51.068,303.268 51.639,302.412 52.330 M392.033 52.986 C 391.077 55.111,389.339 57.623,387.221 59.940 C 385.378 61.956,385.356 61.996,386.892 60.545 C 389.303 58.265,393.284 52.324,392.754 51.795 C 392.684 51.724,392.360 52.260,392.033 52.986 M293.696 59.334 L 292.451 60.448 293.774 59.459 C 294.913 58.607,295.324 58.197,295.019 58.215 C 294.977 58.217,294.381 58.721,293.696 59.334 M289.650 62.257 C 289.340 62.599,289.226 62.879,289.398 62.879 C 289.569 62.879,289.962 62.599,290.272 62.257 C 290.582 61.914,290.696 61.634,290.525 61.634 C 290.353 61.634,289.960 61.914,289.650 62.257 M383.346 63.384 L 381.790 64.810 383.424 63.505 C 384.839 62.374,385.288 61.927,384.981 61.952 C 384.938 61.955,384.202 62.600,383.346 63.384 M285.603 65.404 C 283.234 67.318,282.853 67.849,285.078 66.137 C 286.797 64.814,287.575 64.099,287.256 64.136 C 287.203 64.142,286.459 64.712,285.603 65.404 M379.922 66.026 C 377.553 67.940,377.172 68.472,379.397 66.759 C 381.116 65.437,381.894 64.721,381.575 64.758 C 381.522 64.764,380.778 65.335,379.922 66.026 M372.451 71.941 C 370.082 73.855,369.701 74.386,371.926 72.674 C 373.645 71.351,374.423 70.636,374.104 70.673 C 374.051 70.679,373.307 71.249,372.451 71.941 M276.576 72.563 C 274.206 74.477,273.826 75.009,276.051 73.296 C 277.770 71.973,278.548 71.258,278.228 71.295 C 278.176 71.301,277.432 71.872,276.576 72.563 M363.424 79.100 C 361.055 81.014,360.674 81.546,362.899 79.833 C 364.618 78.510,365.396 77.795,365.077 77.832 C 365.024 77.838,364.280 78.409,363.424 79.100 M267.549 79.723 C 265.179 81.637,264.798 82.168,267.023 80.456 C 268.742 79.133,269.521 78.418,269.201 78.455 C 269.148 78.461,268.405 79.032,267.549 79.723 M354.086 86.260 C 351.716 88.174,351.335 88.705,353.560 86.993 C 355.279 85.670,356.058 84.955,355.738 84.992 C 355.685 84.998,354.942 85.568,354.086 86.260 M258.833 86.727 L 257.588 87.841 258.911 86.852 C 260.049 86.000,260.460 85.590,260.156 85.608 C 260.113 85.610,259.518 86.114,258.833 86.727 M346.615 92.174 C 344.245 94.088,343.864 94.620,346.089 92.907 C 347.809 91.584,348.587 90.869,348.267 90.906 C 348.214 90.912,347.471 91.483,346.615 92.174 M251.051 92.797 C 248.681 94.711,248.300 95.242,250.525 93.530 C 252.244 92.207,253.023 91.492,252.703 91.529 C 252.650 91.535,251.907 92.105,251.051 92.797 M337.588 99.334 C 335.218 101.248,334.837 101.779,337.062 100.067 C 338.781 98.744,339.560 98.029,339.240 98.066 C 339.187 98.072,338.444 98.642,337.588 99.334 M242.023 99.956 C 239.654 101.870,239.273 102.402,241.498 100.689 C 243.217 99.366,243.995 98.651,243.676 98.688 C 243.623 98.694,242.879 99.265,242.023 99.956 M328.560 106.493 C 326.191 108.407,325.810 108.939,328.035 107.226 C 329.754 105.903,330.532 105.188,330.213 105.225 C 330.160 105.231,329.416 105.802,328.560 106.493 M233.307 106.960 L 232.062 108.075 233.385 107.085 C 234.524 106.233,234.935 105.823,234.630 105.841 C 234.588 105.844,233.992 106.347,233.307 106.960 M225.525 113.030 C 223.156 114.944,222.775 115.476,225.000 113.763 C 226.719 112.440,227.497 111.725,227.178 111.762 C 227.125 111.768,226.381 112.339,225.525 113.030 M319.533 113.653 C 317.164 115.567,316.783 116.098,319.008 114.386 C 320.727 113.063,321.505 112.348,321.186 112.385 C 321.133 112.391,320.389 112.961,319.533 113.653 M311.751 119.879 C 309.381 121.792,309.001 122.324,311.226 120.612 C 312.945 119.289,313.723 118.573,313.404 118.610 C 313.351 118.616,312.607 119.187,311.751 119.879 M216.187 120.501 C 213.817 122.415,213.436 122.946,215.661 121.234 C 217.381 119.911,218.159 119.196,217.839 119.233 C 217.786 119.239,217.043 119.810,216.187 120.501 M302.322 127.366 C 301.245 128.237,300.450 129.036,300.556 129.142 C 300.661 129.247,300.884 129.089,301.050 128.791 C 301.217 128.493,301.523 128.249,301.730 128.249 C 301.938 128.249,302.282 127.969,302.496 127.626 C 302.710 127.284,303.060 127.004,303.274 127.004 C 303.488 127.004,303.838 126.724,304.052 126.381 C 304.574 125.547,304.564 125.552,302.322 127.366 M207.201 127.638 C 206.367 128.316,205.394 128.872,205.037 128.872 C 204.547 128.872,204.477 128.959,204.749 129.231 C 205.078 129.560,208.186 127.550,208.744 126.647 C 209.022 126.198,208.772 126.358,207.201 127.638 M299.301 129.804 C 298.991 130.147,298.881 130.428,299.058 130.428 C 299.449 130.428,300.226 129.538,300.017 129.329 C 299.934 129.247,299.612 129.460,299.301 129.804 M293.696 134.198 C 291.327 136.112,290.946 136.643,293.171 134.931 C 294.890 133.608,295.669 132.893,295.349 132.929 C 295.296 132.936,294.553 133.506,293.696 134.198 M284.669 141.357 C 282.300 143.271,281.919 143.802,284.144 142.090 C 285.863 140.767,286.641 140.052,286.322 140.089 C 286.269 140.095,285.525 140.666,284.669 141.357 M277.198 147.272 C 274.829 149.185,274.448 149.717,276.673 148.005 C 278.392 146.682,279.171 145.966,278.851 146.003 C 278.798 146.009,278.054 146.580,277.198 147.272 M268.171 154.431 C 265.802 156.345,265.421 156.876,267.646 155.164 C 269.365 153.841,270.143 153.126,269.824 153.163 C 269.771 153.169,269.027 153.740,268.171 154.431 M259.144 161.591 C 256.774 163.505,256.394 164.036,258.619 162.324 C 260.338 161.001,261.116 160.285,260.797 160.322 C 260.744 160.329,260.000 160.899,259.144 161.591 M253.888 165.789 C 253.220 166.377,253.081 166.668,253.344 166.931 C 253.607 167.194,253.696 167.174,253.696 166.853 C 253.696 166.616,254.001 166.097,254.373 165.701 C 255.263 164.754,255.015 164.799,253.888 165.789 M157.030 167.492 C 156.917 167.675,156.628 167.749,156.389 167.657 C 156.149 167.566,155.953 167.661,155.953 167.870 C 155.953 168.078,155.428 168.716,154.786 169.287 C 154.144 169.858,154.494 169.663,155.564 168.852 C 156.634 168.042,157.510 167.330,157.510 167.269 C 157.510 167.041,157.227 167.172,157.030 167.492 M147.082 175.287 C 144.712 177.201,144.331 177.732,146.556 176.020 C 148.275 174.697,149.054 173.982,148.734 174.019 C 148.681 174.025,147.938 174.596,147.082 175.287 M138.366 182.291 L 137.121 183.405 138.444 182.416 C 139.582 181.564,139.993 181.154,139.689 181.172 C 139.646 181.174,139.051 181.678,138.366 182.291 M130.584 188.361 C 128.214 190.275,127.833 190.806,130.058 189.094 C 131.777 187.771,132.556 187.056,132.236 187.093 C 132.183 187.099,131.440 187.670,130.584 188.361 M119.944 196.891 C 118.372 198.166,116.992 199.363,116.877 199.549 C 116.762 199.736,118.083 198.739,119.812 197.334 C 122.562 195.101,123.201 194.524,122.879 194.562 C 122.837 194.567,121.516 195.615,119.944 196.891 M114.690 201.561 C 113.861 202.512,113.175 203.329,113.167 203.376 C 113.158 203.423,113.898 202.706,114.811 201.782 C 115.724 200.858,116.409 200.041,116.335 199.966 C 116.260 199.892,115.520 200.609,114.690 201.561 M111.433 205.807 C 110.752 206.861,110.196 207.876,110.198 208.064 C 110.200 208.251,110.548 207.800,110.971 207.060 C 111.394 206.320,112.032 205.305,112.389 204.803 C 112.746 204.301,112.956 203.891,112.855 203.891 C 112.754 203.891,112.114 204.753,111.433 205.807 M204.047 205.447 C 203.941 205.619,204.151 205.759,204.514 205.759 C 204.876 205.759,205.086 205.619,204.981 205.447 C 204.875 205.276,204.665 205.136,204.514 205.136 C 204.363 205.136,204.153 205.276,204.047 205.447 M198.755 209.528 C 196.385 211.442,196.005 211.974,198.230 210.261 C 199.949 208.938,200.727 208.223,200.407 208.260 C 200.355 208.266,199.611 208.837,198.755 209.528 M273.044 211.861 C 272.642 212.143,272.406 212.553,272.502 212.804 C 272.596 213.048,272.477 214.189,272.239 215.340 C 272.001 216.491,271.708 218.553,271.588 219.922 C 271.468 221.292,271.127 223.118,270.829 223.981 C 269.284 228.458,270.868 232.961,275.251 236.556 C 276.817 237.841,278.053 239.106,278.161 239.535 C 278.603 241.298,284.218 245.309,284.861 244.322 C 285.120 243.926,285.090 243.590,284.625 241.670 C 284.513 241.208,284.756 240.707,285.423 240.025 C 286.010 239.425,286.384 238.717,286.388 238.199 C 286.410 235.491,288.824 233.238,290.830 234.054 C 292.728 234.826,293.198 234.814,294.420 233.968 C 296.555 232.489,296.787 232.589,303.725 238.002 C 308.479 241.712,309.105 242.108,309.105 241.412 C 309.105 241.149,309.324 240.934,309.592 240.934 C 310.367 240.934,314.086 239.037,314.081 238.645 C 314.078 238.418,313.993 238.401,313.847 238.599 C 313.340 239.290,312.663 238.953,309.017 236.192 C 306.926 234.608,305.144 233.237,305.058 233.146 C 304.973 233.055,304.272 232.497,303.502 231.907 C 301.276 230.201,301.050 229.462,302.580 228.885 C 303.403 228.574,303.574 228.606,303.900 229.128 C 304.106 229.458,304.441 229.728,304.644 229.728 C 304.847 229.728,305.316 230.113,305.687 230.584 C 306.057 231.054,306.517 231.440,306.708 231.440 C 306.900 231.440,307.378 231.916,307.770 232.497 C 308.162 233.079,308.487 233.359,308.492 233.120 C 308.498 232.867,308.847 233.076,309.326 233.619 C 309.780 234.132,310.257 234.520,310.388 234.481 C 310.519 234.441,310.927 234.791,311.294 235.259 C 311.662 235.726,312.009 236.039,312.065 235.953 C 312.236 235.694,313.767 237.270,313.603 237.536 C 313.519 237.672,313.651 237.896,313.896 238.035 C 314.142 238.174,314.404 238.708,314.479 239.222 L 314.615 240.156 314.662 239.145 C 314.723 237.809,313.730 236.743,308.212 232.218 C 304.441 229.126,303.841 228.511,303.808 227.704 C 303.763 226.607,303.249 225.181,303.213 226.053 C 303.192 226.548,302.485 227.061,300.733 227.853 C 299.694 228.323,298.128 227.756,297.103 226.537 C 296.276 225.554,296.242 225.114,296.818 222.832 C 297.304 220.904,292.520 219.709,289.899 221.104 C 287.996 222.117,286.419 221.337,285.621 218.988 C 285.292 218.017,285.020 217.722,284.389 217.645 C 282.950 217.470,283.268 219.225,284.986 220.943 C 286.494 222.451,286.590 222.754,285.413 222.296 C 283.553 221.571,281.404 218.670,281.402 216.882 C 281.400 214.761,274.673 210.720,273.044 211.861 M189.728 216.688 C 187.358 218.602,186.977 219.133,189.202 217.421 C 190.921 216.098,191.700 215.383,191.380 215.420 C 191.327 215.426,190.584 215.996,189.728 216.688 M107.773 220.408 L 107.704 224.941 106.742 225.653 C 104.980 226.956,104.338 229.391,105.814 229.175 C 106.494 229.075,106.829 229.207,107.134 229.696 C 107.591 230.428,108.638 230.585,108.638 229.921 C 108.638 229.685,108.323 229.278,107.938 229.017 L 107.237 228.542 108.790 227.083 C 110.144 225.810,110.473 225.645,111.358 225.788 C 112.470 225.969,112.747 225.444,111.908 224.748 C 111.548 224.450,111.126 224.441,110.058 224.710 C 109.297 224.902,108.529 225.058,108.353 225.058 C 108.152 225.058,107.997 223.349,107.937 220.467 L 107.842 215.875 107.773 220.408 M132.866 216.629 C 132.100 218.743,127.501 220.727,125.313 219.887 C 125.112 219.810,124.325 220.169,123.563 220.685 C 122.802 221.201,122.005 221.625,121.792 221.629 C 121.580 221.632,120.024 222.745,118.334 224.102 C 116.645 225.460,114.789 226.859,114.210 227.211 C 113.631 227.563,112.799 228.379,112.363 229.023 C 111.782 229.880,111.239 230.275,110.337 230.494 C 109.660 230.658,108.921 231.044,108.697 231.352 C 108.472 231.659,103.570 235.572,97.802 240.047 C 92.034 244.522,87.140 248.400,86.926 248.665 C 86.478 249.219,86.960 249.707,87.682 249.430 C 88.021 249.300,88.041 249.436,87.781 250.119 C 87.361 251.224,87.875 251.968,88.739 251.505 C 89.058 251.334,95.727 246.214,103.559 240.127 L 117.798 229.059 119.617 229.270 C 121.851 229.530,122.643 229.006,122.651 227.267 C 122.659 225.275,124.203 223.494,126.363 222.985 C 126.801 222.882,127.537 222.395,127.998 221.904 C 128.481 221.390,129.162 221.012,129.604 221.012 C 130.624 221.012,133.852 217.987,133.852 217.031 C 133.852 216.362,133.078 216.046,132.866 216.629 M182.257 222.602 C 179.887 224.516,179.506 225.048,181.732 223.335 C 183.451 222.012,184.229 221.297,183.909 221.334 C 183.857 221.340,183.113 221.911,182.257 222.602 M141.680 223.886 C 139.578 225.534,140.176 225.834,142.446 224.271 C 144.388 222.933,144.705 222.566,143.909 222.573 C 143.600 222.576,142.596 223.167,141.680 223.886 M122.179 226.619 C 122.179 226.874,121.864 227.126,121.479 227.181 C 120.797 227.278,120.506 226.679,120.996 226.189 C 121.359 225.826,122.179 226.124,122.179 226.619 M113.307 229.862 C 113.307 229.936,112.852 230.299,112.296 230.669 L 111.284 231.341 112.157 230.534 C 112.999 229.757,113.307 229.577,113.307 229.862 M129.497 233.313 C 127.872 234.584,126.497 235.761,126.441 235.929 C 126.294 236.371,128.332 235.742,128.716 235.226 C 128.887 234.996,129.903 234.080,130.973 233.190 C 132.724 231.734,133.337 230.946,132.685 230.988 C 132.556 230.996,131.122 232.043,129.497 233.313 M164.202 236.921 C 161.833 238.835,161.452 239.367,163.677 237.654 C 165.396 236.331,166.174 235.616,165.855 235.653 C 165.802 235.659,165.058 236.230,164.202 236.921 M109.960 248.513 C 94.430 260.613,95.074 260.086,95.502 260.350 C 95.668 260.453,101.599 256.037,108.680 250.537 C 115.762 245.037,122.076 240.208,122.710 239.806 C 124.004 238.987,125.041 237.479,124.280 237.523 C 124.152 237.531,117.708 242.476,109.960 248.513 M130.875 241.584 C 130.373 242.113,129.374 242.892,128.655 243.316 C 127.350 244.085,127.106 244.986,128.205 244.976 C 128.896 244.970,132.296 241.779,132.296 241.136 C 132.296 240.380,131.901 240.505,130.875 241.584 M157.043 242.680 L 155.798 243.794 157.121 242.805 C 158.259 241.953,158.670 241.543,158.366 241.561 C 158.323 241.564,157.728 242.067,157.043 242.680 M318.677 242.710 C 319.062 242.784,319.377 242.983,319.377 243.153 C 319.377 243.322,319.202 243.372,318.988 243.264 C 318.774 243.155,318.879 243.297,319.222 243.579 C 319.564 243.860,319.811 244.216,319.770 244.369 C 319.730 244.522,319.905 244.567,320.159 244.469 C 320.414 244.371,320.623 244.138,320.623 243.951 C 320.623 243.730,320.758 243.746,321.009 243.997 C 321.317 244.305,321.301 244.444,320.931 244.677 C 320.557 244.914,320.602 244.979,321.167 245.015 C 322.530 245.100,322.645 245.156,322.554 245.690 C 322.503 245.987,322.615 246.474,322.802 246.773 C 323.099 247.246,323.119 247.229,322.959 246.640 C 322.816 246.113,322.898 245.986,323.333 246.059 C 323.640 246.111,323.869 246.274,323.843 246.423 C 323.817 246.571,323.992 246.873,324.232 247.094 C 324.541 247.378,324.669 247.390,324.669 247.134 C 324.669 246.880,324.818 246.895,325.166 247.185 C 325.618 247.559,325.611 247.618,325.089 247.823 C 324.583 248.022,324.598 248.052,325.214 248.072 C 325.599 248.084,325.917 248.268,325.919 248.482 C 325.922 248.742,326.025 248.716,326.226 248.405 C 326.484 248.005,326.630 248.126,326.604 248.716 C 326.600 248.802,326.793 249.052,327.034 249.273 C 327.315 249.531,327.471 249.553,327.471 249.332 C 327.471 249.144,327.602 249.072,327.763 249.171 C 327.924 249.270,328.006 249.609,327.945 249.924 C 327.863 250.348,328.009 250.482,328.509 250.443 C 329.501 250.364,329.656 250.526,329.354 251.321 C 329.156 251.843,329.193 252.036,329.492 252.036 C 329.717 252.036,329.834 251.860,329.752 251.645 C 329.659 251.403,329.817 251.290,330.170 251.349 C 330.483 251.402,330.718 251.566,330.691 251.715 C 330.665 251.863,330.840 252.165,331.080 252.386 C 331.362 252.644,331.518 252.665,331.518 252.445 C 331.518 252.257,331.667 252.196,331.850 252.309 C 332.033 252.422,332.113 252.697,332.027 252.919 C 331.802 253.506,332.169 253.749,332.663 253.338 C 333.003 253.056,333.050 253.104,332.896 253.575 C 332.738 254.059,332.763 254.081,333.040 253.696 C 333.341 253.277,333.521 253.460,333.422 254.086 C 333.402 254.214,333.515 254.319,333.674 254.319 C 333.832 254.319,334.026 254.564,334.104 254.864 C 334.236 255.367,334.250 255.366,334.283 254.845 C 334.303 254.536,334.461 254.370,334.635 254.478 C 334.809 254.585,334.881 254.788,334.794 254.928 C 334.708 255.068,334.846 255.355,335.101 255.567 C 335.471 255.875,335.564 255.869,335.564 255.540 C 335.564 255.237,335.656 255.220,335.912 255.476 C 336.167 255.731,336.130 256.006,335.773 256.517 L 335.287 257.210 335.081 256.389 C 334.968 255.938,334.748 255.647,334.592 255.744 C 334.436 255.840,334.402 256.069,334.516 256.253 C 334.630 256.437,333.899 255.972,332.893 255.220 C 330.202 253.208,329.974 252.993,330.184 252.654 C 330.294 252.476,330.168 252.425,329.886 252.533 C 329.330 252.746,328.278 251.761,328.637 251.365 C 328.766 251.223,328.690 251.211,328.469 251.339 C 327.975 251.623,327.089 250.949,327.367 250.500 C 327.484 250.310,327.416 250.270,327.201 250.402 C 326.997 250.528,326.391 250.272,325.830 249.823 C 325.277 249.380,324.685 248.912,324.514 248.782 C 320.726 245.916,319.106 244.546,319.242 244.326 C 319.527 243.864,318.335 244.425,317.408 245.189 C 316.924 245.588,316.153 245.996,315.696 246.096 C 314.214 246.420,314.086 246.507,314.086 247.200 C 314.086 247.576,313.726 248.496,313.287 249.246 C 312.163 251.163,311.880 250.840,320.593 257.588 C 329.836 264.746,329.519 264.528,330.074 264.122 C 332.055 262.672,332.070 262.667,332.848 263.091 C 333.550 263.475,369.240 290.397,374.558 294.555 C 377.975 297.227,378.927 297.228,379.267 294.559 L 379.475 292.932 376.490 290.717 C 374.124 288.962,373.525 288.364,373.601 287.831 C 373.783 286.554,374.855 286.902,378.003 289.261 C 381.805 292.110,383.191 292.297,383.191 289.962 C 383.191 288.234,383.110 288.149,376.809 283.333 C 373.899 281.108,364.444 273.870,355.798 267.249 L 340.078 255.211 338.270 255.385 L 336.462 255.558 329.025 249.804 C 320.197 242.973,319.489 242.477,318.634 242.533 C 318.012 242.573,318.014 242.582,318.677 242.710 M152.753 245.734 C 150.915 247.006,150.478 247.452,151.834 246.671 C 152.879 246.069,154.674 244.687,154.397 244.698 C 154.311 244.701,153.571 245.167,152.753 245.734 M121.712 247.459 C 122.654 247.965,123.564 248.383,123.735 248.387 C 123.907 248.390,123.289 247.976,122.363 247.465 C 121.437 246.955,120.526 246.537,120.339 246.537 C 120.153 246.537,120.770 246.952,121.712 247.459 M131.128 250.487 C 131.428 250.565,131.918 250.565,132.218 250.487 C 132.518 250.409,132.272 250.345,131.673 250.345 C 131.074 250.345,130.829 250.409,131.128 250.487 M134.864 250.812 C 135.677 250.877,137.008 250.877,137.821 250.812 C 138.634 250.748,137.969 250.696,136.342 250.696 C 134.716 250.696,134.051 250.748,134.864 250.812 M308.606 255.533 C 307.980 255.915,307.571 256.464,307.445 257.092 C 307.239 258.126,305.058 260.595,305.058 259.795 C 305.058 259.543,304.923 259.252,304.756 259.150 C 304.590 259.047,304.649 259.515,304.887 260.190 C 305.300 261.360,305.278 261.492,304.399 263.082 C 301.777 267.825,301.404 267.159,310.619 274.205 C 319.962 281.349,319.719 281.253,322.023 278.725 L 322.957 277.701 344.277 293.873 C 366.669 310.858,366.179 310.516,367.731 310.225 C 368.753 310.033,369.241 307.425,368.397 306.670 C 368.230 306.521,366.938 305.531,365.525 304.470 C 363.543 302.980,362.957 302.368,362.957 301.784 C 362.957 301.156,360.823 299.373,350.428 291.312 C 327.928 273.865,326.250 272.534,326.238 272.129 C 326.216 271.416,332.393 275.935,359.377 296.374 C 372.239 306.116,371.080 305.486,372.142 303.314 C 373.170 301.214,373.125 301.094,370.592 299.242 C 368.483 297.700,349.975 283.783,336.530 273.630 C 330.667 269.202,328.699 267.876,327.896 267.813 C 327.088 267.749,325.344 266.560,320.082 262.488 C 308.860 253.802,310.156 254.588,308.606 255.533 M58.139 262.926 C 57.211 263.188,26.332 286.974,25.760 287.867 C 25.436 288.374,25.227 289.281,25.240 290.117 C 25.253 290.887,25.327 291.363,25.405 291.174 C 25.587 290.732,26.954 290.988,27.422 291.552 C 28.167 292.450,29.207 291.752,40.527 282.747 C 46.914 277.666,54.136 271.922,56.576 269.983 C 60.999 266.467,61.012 266.453,61.012 265.169 C 61.012 264.377,61.194 263.749,61.484 263.536 C 61.883 263.244,61.847 263.185,61.251 263.156 C 60.862 263.137,60.125 263.044,59.611 262.948 C 59.097 262.852,58.435 262.843,58.139 262.926 M63.035 267.011 C 60.516 268.852,30.449 292.018,29.289 293.012 C 28.340 293.824,28.052 293.906,26.578 293.784 C 25.350 293.682,24.885 293.760,24.760 294.087 C 24.417 294.980,24.622 296.847,25.204 298.129 C 25.850 299.551,25.966 299.567,27.860 298.496 C 29.302 297.680,31.019 297.475,31.803 298.025 C 32.725 298.670,31.794 299.330,49.412 285.529 C 64.370 273.810,65.097 273.194,64.884 272.414 C 64.485 270.954,64.691 270.433,66.187 269.117 C 67.784 267.711,67.811 267.082,66.271 267.082 C 65.566 267.082,65.364 266.953,65.434 266.548 C 65.589 265.643,64.662 265.821,63.035 267.011 M315.033 268.023 C 317.063 269.109,315.797 272.374,313.345 272.374 C 311.999 272.374,311.334 269.544,312.451 268.571 C 313.427 267.721,314.173 267.563,315.033 268.023 M52.140 288.899 C 33.781 303.240,35.349 301.855,35.442 303.644 C 35.534 305.428,33.478 308.025,32.569 307.271 C 31.932 306.742,32.343 305.918,33.621 305.163 C 34.133 304.860,34.553 304.359,34.553 304.048 C 34.553 303.011,33.624 303.074,31.976 304.223 C 30.673 305.131,30.288 305.269,29.901 304.965 C 29.640 304.759,30.111 305.402,30.948 306.393 C 31.785 307.384,33.043 308.637,33.744 309.177 C 34.871 310.046,34.933 310.065,34.281 309.339 L 33.543 308.517 34.592 307.554 C 35.170 307.025,35.957 306.527,36.342 306.448 C 36.728 306.368,37.358 306.235,37.743 306.151 C 38.128 306.067,40.405 304.439,42.802 302.533 C 45.198 300.627,52.553 294.823,59.144 289.636 C 65.735 284.448,71.750 279.566,72.510 278.786 C 73.916 277.341,74.082 276.574,72.791 277.478 C 71.843 278.142,70.902 278.107,69.498 277.354 C 68.859 277.012,68.194 276.734,68.020 276.736 C 67.846 276.739,60.700 282.212,52.140 288.899 M57.121 293.405 C 38.536 308.108,40.289 306.525,40.718 308.215 C 40.976 309.231,40.968 309.612,40.685 309.792 C 40.479 309.923,41.036 310.032,41.922 310.034 C 43.302 310.038,43.747 309.875,45.035 308.893 C 56.111 300.441,75.436 284.899,75.686 284.242 C 76.447 282.242,75.482 281.113,72.996 281.094 C 72.825 281.093,65.681 286.633,57.121 293.405 M381.219 297.484 C 381.104 297.599,381.199 297.914,381.431 298.185 C 382.129 299.002,382.246 299.699,381.754 300.108 C 381.382 300.417,381.307 300.415,381.383 300.101 C 381.533 299.480,380.195 299.094,379.751 299.630 C 379.458 299.982,379.482 300.294,379.862 301.077 C 380.128 301.627,380.277 302.187,380.193 302.322 C 379.659 303.186,380.521 302.294,381.597 300.869 C 382.874 299.178,383.161 298.622,382.568 298.988 C 382.397 299.094,382.257 299.017,382.257 298.818 C 382.257 298.618,382.450 298.529,382.686 298.619 C 383.098 298.777,383.813 298.308,383.813 297.880 C 383.813 297.767,383.479 297.738,383.072 297.816 C 382.664 297.894,382.235 297.804,382.119 297.617 C 381.880 297.230,381.525 297.178,381.219 297.484 M28.794 299.021 C 28.280 299.439,27.708 299.902,27.523 300.049 C 27.332 300.200,26.948 300.183,26.639 300.011 C 26.156 299.740,26.134 299.781,26.447 300.367 C 26.642 300.731,26.919 300.957,27.062 300.868 C 27.205 300.780,27.304 300.934,27.280 301.211 C 27.205 302.097,28.461 301.974,29.670 300.978 C 30.949 299.923,31.072 299.470,30.272 298.750 C 29.773 298.300,29.650 298.322,28.794 299.021 " stroke="none" fill="#161d1b" fill-rule="evenodd"></path><path id="path3" d="M30.163 29.656 C 27.470 31.455,27.289 35.090,29.778 37.395 C 30.264 37.845,44.739 49.127,61.946 62.466 C 79.152 75.805,112.911 101.989,136.965 120.652 C 192.021 163.369,188.717 160.841,189.937 161.175 C 191.318 161.552,191.468 161.482,194.625 158.992 C 197.291 156.889,197.555 156.527,197.163 155.507 C 196.886 154.784,192.560 151.405,104.436 83.080 C 91.082 72.726,70.131 56.470,57.878 46.955 C 45.625 37.440,35.304 29.496,34.941 29.302 C 33.795 28.689,31.339 28.870,30.163 29.656 M364.047 33.831 C 362.782 34.506,371.904 27.265,257.257 118.599 C 227.395 142.389,216.196 151.283,201.012 163.268 C 197.241 166.245,156.406 198.879,143.365 209.338 C 135.392 215.732,135.273 215.845,134.935 217.432 C 134.695 218.561,132.453 220.733,130.223 221.997 C 129.339 222.498,128.538 223.111,128.442 223.360 C 128.347 223.609,127.898 223.813,127.445 223.813 C 126.173 223.813,124.209 225.056,124.023 225.977 C 123.276 229.680,122.458 230.509,119.817 230.238 L 118.078 230.059 103.779 241.177 C 95.915 247.292,88.488 253.101,87.274 254.086 C 85.902 255.198,84.773 255.875,84.290 255.875 C 83.291 255.875,80.743 253.654,80.171 252.285 C 79.502 250.684,76.576 250.121,76.576 251.593 C 76.576 251.723,76.431 251.829,76.254 251.829 C 76.033 251.829,76.035 251.636,76.258 251.218 C 76.463 250.835,76.787 250.669,77.125 250.774 C 77.627 250.930,77.627 250.917,77.118 250.590 C 76.481 250.181,75.953 250.413,75.953 251.102 C 75.953 251.398,75.777 251.516,75.496 251.409 C 75.245 251.312,74.957 251.367,74.855 251.531 C 74.754 251.695,74.901 251.829,75.183 251.829 C 75.464 251.829,75.634 252.004,75.562 252.218 C 75.489 252.432,74.952 252.607,74.368 252.607 C 73.497 252.607,73.289 252.735,73.206 253.326 C 73.126 253.885,73.012 253.968,72.689 253.700 C 72.402 253.462,72.211 253.456,72.072 253.681 C 71.961 253.861,72.030 254.008,72.225 254.008 C 72.421 254.008,72.522 254.183,72.450 254.397 C 72.378 254.611,71.924 254.786,71.441 254.786 C 70.938 254.786,70.496 254.985,70.406 255.253 C 70.270 255.656,70.321 255.660,70.774 255.286 C 71.063 255.048,71.389 254.943,71.499 255.053 C 71.609 255.163,71.536 255.253,71.336 255.253 C 71.136 255.253,71.008 255.420,71.051 255.624 C 71.156 256.127,70.016 256.342,69.726 255.873 C 69.560 255.604,69.434 255.596,69.281 255.842 C 69.164 256.032,69.234 256.187,69.436 256.187 C 69.702 256.187,69.690 256.338,69.392 256.732 C 69.041 257.195,69.045 257.218,69.416 256.887 C 69.656 256.673,69.995 256.498,70.170 256.498 C 70.345 256.498,70.151 256.734,69.739 257.023 C 69.207 257.396,68.953 257.441,68.865 257.179 C 68.685 256.638,67.958 256.728,67.730 257.320 C 67.567 257.748,67.612 257.767,68.008 257.438 C 68.447 257.074,68.621 257.214,68.512 257.844 C 68.487 257.985,68.646 257.993,68.864 257.862 C 69.168 257.680,69.164 257.742,68.850 258.130 C 68.370 258.723,68.731 259.625,69.727 260.323 C 73.455 262.934,73.162 265.153,68.638 268.570 L 65.837 270.686 65.837 272.213 L 65.837 273.740 61.634 277.048 C 59.323 278.867,51.829 284.742,44.981 290.102 C 38.132 295.463,32.435 300.092,32.321 300.390 C 32.206 300.687,31.644 301.220,31.070 301.574 C 30.497 301.928,29.705 302.562,29.310 302.982 L 28.593 303.746 29.296 304.239 C 29.965 304.707,30.062 304.677,31.264 303.637 C 31.960 303.035,32.976 302.340,33.521 302.092 C 34.067 301.845,38.689 298.375,43.794 294.381 C 69.277 274.440,67.520 275.738,68.761 275.947 C 69.660 276.099,70.096 275.979,70.955 275.344 C 71.545 274.909,72.427 274.553,72.915 274.553 C 73.498 274.553,74.507 274.019,75.858 272.996 C 78.524 270.978,78.992 271.113,80.623 274.375 C 81.288 275.705,82.591 276.390,83.445 275.857 C 83.905 275.570,84.211 275.546,84.489 275.777 C 84.992 276.195,85.388 275.821,84.972 275.321 C 84.800 275.113,84.750 274.703,84.863 274.410 C 84.992 274.073,85.144 274.002,85.276 274.216 C 85.414 274.439,85.699 274.354,86.114 273.967 C 86.567 273.545,86.891 273.462,87.263 273.670 C 87.549 273.830,87.800 273.884,87.821 273.790 C 87.842 273.696,87.895 273.479,87.938 273.307 C 87.981 273.136,88.044 272.751,88.079 272.451 C 88.119 272.111,88.201 272.052,88.300 272.296 C 88.497 272.786,89.230 272.801,89.527 272.321 C 89.678 272.076,89.582 272.022,89.234 272.155 C 88.609 272.395,88.567 272.167,89.132 271.601 C 89.387 271.347,89.714 271.287,89.974 271.447 C 90.595 271.831,90.871 271.535,90.712 270.656 C 90.635 270.231,90.714 269.883,90.889 269.883 C 91.063 269.883,91.206 270.023,91.206 270.195 C 91.206 270.626,92.054 270.586,92.328 270.142 C 92.472 269.909,92.393 269.839,92.112 269.947 C 91.869 270.040,91.502 269.937,91.296 269.717 C 91.004 269.403,91.024 269.278,91.392 269.137 C 91.658 269.035,91.779 269.090,91.671 269.264 C 91.566 269.434,91.644 269.572,91.844 269.572 C 92.047 269.572,92.123 269.355,92.018 269.080 C 91.914 268.809,91.829 268.330,91.829 268.015 C 91.829 267.701,91.328 266.977,90.715 266.407 C 89.626 265.392,88.716 264.008,88.716 263.367 C 88.716 263.190,89.634 262.324,90.757 261.442 C 91.931 260.519,93.021 259.360,93.325 258.713 C 93.745 257.817,98.669 253.836,117.510 239.163 L 141.167 220.737 142.879 220.709 L 144.591 220.681 174.475 196.862 C 190.911 183.762,218.996 161.358,236.887 147.075 C 266.759 123.228,317.230 82.979,354.676 53.142 C 363.259 46.303,370.091 40.635,370.437 40.068 C 372.687 36.378,367.945 31.750,364.047 33.831 M215.462 175.295 C 211.236 178.583,210.922 177.985,221.012 185.861 C 240.125 200.780,268.695 222.888,269.235 223.177 C 270.050 223.613,270.151 223.389,270.515 220.331 C 270.685 218.908,271.041 216.729,271.308 215.490 C 271.574 214.250,271.710 213.103,271.609 212.941 C 271.457 212.694,240.194 188.347,226.096 177.496 C 219.111 172.120,219.452 172.190,215.462 175.295 M287.383 219.192 C 287.545 219.677,288.241 219.762,288.265 219.300 C 288.275 219.128,288.048 218.940,287.763 218.881 C 287.438 218.814,287.296 218.930,287.383 219.192 M137.703 229.340 C 134.870 231.597,132.918 233.512,132.918 234.036 C 132.918 234.154,133.608 234.496,134.450 234.795 C 135.707 235.241,136.346 235.779,138.015 237.796 C 140.941 241.333,142.010 241.577,145.004 239.389 C 147.792 237.353,147.757 235.706,144.851 232.154 C 143.680 230.723,142.959 229.502,142.715 228.538 C 142.140 226.261,141.423 226.375,137.703 229.340 M102.931 230.869 C 102.567 231.234,102.709 231.641,103.113 231.388 C 103.327 231.254,103.782 231.173,104.125 231.209 L 104.747 231.274 104.125 230.990 C 103.335 230.629,103.186 230.614,102.931 230.869 M101.375 232.114 C 100.970 232.519,101.174 232.911,101.604 232.554 C 101.939 232.276,102.078 232.285,102.202 232.594 C 102.305 232.850,102.372 232.798,102.388 232.451 C 102.412 231.916,101.782 231.707,101.375 232.114 M100.107 233.104 C 100.007 233.266,100.155 233.486,100.435 233.593 C 101.123 233.857,101.284 233.636,100.736 233.181 C 100.469 232.960,100.216 232.929,100.107 233.104 M98.573 234.293 C 98.179 234.688,98.366 235.095,98.784 234.749 C 99.013 234.558,99.316 234.506,99.456 234.633 C 99.596 234.760,99.610 234.689,99.487 234.475 C 99.239 234.045,98.891 233.975,98.573 234.293 M288.552 235.602 C 286.483 237.671,286.747 238.193,291.770 241.975 C 296.433 245.486,298.126 246.789,303.251 250.810 C 308.403 254.853,308.335 254.833,309.940 252.685 C 313.581 247.810,313.936 248.553,304.436 241.180 C 296.026 234.653,295.542 234.362,294.422 235.146 C 293.537 235.765,292.686 235.773,291.254 235.175 C 289.747 234.545,289.583 234.571,288.552 235.602 M97.017 235.538 C 96.644 235.911,96.798 236.131,97.432 236.131 C 97.774 236.131,98.054 235.951,98.054 235.731 C 98.054 235.310,97.372 235.184,97.017 235.538 M95.749 236.528 C 95.649 236.690,95.797 236.910,96.077 237.018 C 96.765 237.282,96.926 237.060,96.378 236.605 C 96.111 236.384,95.858 236.353,95.749 236.528 M94.215 237.717 C 94.101 237.831,94.008 238.070,94.008 238.246 C 94.008 238.451,94.134 238.441,94.357 238.219 C 94.549 238.027,94.934 237.942,95.213 238.030 C 95.651 238.169,95.657 238.146,95.253 237.855 C 94.706 237.462,94.498 237.434,94.215 237.717 M126.132 238.195 C 125.613 238.714,125.665 239.377,126.226 239.377 C 126.780 239.377,126.820 239.803,126.349 240.682 C 125.470 242.326,126.997 243.278,128.774 242.194 C 130.836 240.937,130.795 239.066,128.705 239.066 C 127.834 239.066,127.626 238.946,127.626 238.444 C 127.626 237.742,126.734 237.593,126.132 238.195 M92.817 238.825 C 92.285 239.357,92.367 239.591,93.068 239.539 C 93.914 239.477,94.102 239.220,93.603 238.807 C 93.293 238.549,93.088 238.554,92.817 238.825 M91.391 239.952 C 91.292 240.114,91.439 240.334,91.719 240.442 C 92.407 240.706,92.568 240.485,92.020 240.029 C 91.753 239.808,91.500 239.777,91.391 239.952 M299.345 241.252 C 302.736 243.812,301.301 246.650,297.791 244.325 C 295.497 242.805,294.864 241.523,295.898 240.489 C 296.675 239.712,297.566 239.909,299.345 241.252 M313.195 241.272 C 312.390 242.022,312.522 242.280,314.356 243.551 C 315.694 244.479,316.481 244.376,316.768 243.234 C 316.871 242.825,317.088 242.490,317.251 242.490 C 317.413 242.490,317.454 242.341,317.341 242.158 C 317.228 241.975,316.953 241.895,316.731 241.981 C 316.502 242.068,316.253 241.856,316.158 241.494 C 316.036 241.026,315.816 240.897,315.349 241.019 C 314.996 241.112,314.786 241.060,314.882 240.905 C 315.229 240.344,313.875 240.638,313.195 241.272 M89.857 241.141 C 89.743 241.256,89.650 241.494,89.650 241.671 C 89.650 241.876,89.776 241.866,89.999 241.643 C 90.191 241.451,90.576 241.366,90.855 241.454 C 91.293 241.593,91.299 241.570,90.895 241.279 C 90.348 240.886,90.140 240.858,89.857 241.141 M88.455 242.254 C 87.934 242.774,88.008 242.979,88.716 242.979 C 89.058 242.979,89.339 242.808,89.339 242.598 C 89.339 242.028,88.865 241.843,88.455 242.254 M121.155 243.612 C 120.934 243.851,120.835 244.047,120.934 244.047 C 121.033 244.047,120.933 244.242,120.713 244.481 C 120.492 244.720,120.222 244.861,120.113 244.796 C 120.004 244.730,119.742 244.885,119.530 245.140 C 119.212 245.523,119.247 245.599,119.728 245.581 C 120.365 245.556,122.194 243.564,121.799 243.325 C 121.666 243.244,121.376 243.374,121.155 243.612 M85.499 244.565 C 85.105 244.960,85.293 245.367,85.710 245.021 C 85.939 244.831,86.242 244.779,86.382 244.905 C 86.522 245.032,86.536 244.961,86.413 244.747 C 86.165 244.317,85.817 244.248,85.499 244.565 M84.358 245.575 C 84.358 245.751,84.146 245.814,83.887 245.714 C 83.628 245.615,83.230 245.688,83.002 245.877 C 82.775 246.066,82.496 246.128,82.384 246.015 C 82.271 245.903,82.179 245.974,82.179 246.174 C 82.179 246.599,82.689 246.660,82.934 246.263 C 83.027 246.113,83.525 246.026,84.042 246.070 C 84.962 246.148,85.285 245.828,84.669 245.447 C 84.498 245.342,84.358 245.399,84.358 245.575 M117.733 246.212 C 117.191 246.685,116.849 247.173,116.973 247.297 C 117.097 247.421,117.036 247.476,116.838 247.419 C 116.324 247.271,113.249 249.615,113.476 249.982 C 113.580 250.150,113.549 250.262,113.408 250.231 C 113.068 250.155,111.994 250.621,111.561 251.033 C 110.365 252.170,109.021 253.277,108.484 253.566 C 108.141 253.752,107.893 254.062,107.934 254.255 C 107.975 254.449,107.814 254.534,107.577 254.443 C 107.340 254.352,106.955 254.532,106.720 254.843 C 106.486 255.154,106.016 255.571,105.676 255.769 C 105.336 255.967,105.097 256.292,105.144 256.492 C 105.191 256.692,105.086 256.767,104.911 256.659 C 104.736 256.551,104.281 256.680,103.900 256.947 C 103.519 257.214,103.315 257.432,103.445 257.432 C 103.575 257.432,103.502 257.624,103.282 257.860 C 103.063 258.095,102.707 258.220,102.492 258.138 C 102.277 258.055,102.101 258.132,102.101 258.307 C 102.101 258.483,101.635 258.914,101.066 259.266 C 100.496 259.618,99.657 260.252,99.200 260.676 C 98.743 261.099,98.153 261.567,97.889 261.715 C 97.518 261.922,97.477 262.156,97.712 262.743 C 97.879 263.160,98.024 263.340,98.035 263.142 C 98.046 262.944,98.319 262.851,98.642 262.936 C 98.965 263.020,99.323 262.937,99.438 262.751 C 99.554 262.565,99.491 262.412,99.300 262.412 C 99.108 262.412,99.046 262.260,99.161 262.074 C 99.276 261.888,99.643 261.807,99.976 261.894 C 100.343 261.990,100.654 261.868,100.762 261.586 C 100.860 261.330,101.302 260.982,101.744 260.814 C 102.379 260.573,102.454 260.451,102.099 260.232 C 101.721 259.999,101.733 259.925,102.173 259.756 C 102.459 259.646,102.842 259.647,103.022 259.759 C 103.203 259.870,103.439 259.732,103.547 259.451 C 103.654 259.170,104.074 258.815,104.478 258.661 C 104.883 258.507,105.214 258.220,105.214 258.024 C 105.214 257.782,105.038 257.805,104.669 258.094 C 104.171 258.485,104.162 258.473,104.570 257.955 C 104.830 257.624,105.259 257.452,105.600 257.542 C 105.945 257.632,106.260 257.503,106.365 257.228 C 106.463 256.972,106.875 256.636,107.280 256.482 C 107.684 256.328,108.016 256.050,108.016 255.865 C 108.016 255.679,107.854 255.627,107.656 255.750 C 107.425 255.893,107.382 255.834,107.536 255.585 C 107.667 255.373,108.041 255.268,108.366 255.353 C 108.945 255.505,109.752 254.602,109.375 254.225 C 109.278 254.129,109.477 254.123,109.817 254.212 C 110.157 254.301,110.530 254.221,110.645 254.035 C 110.760 253.849,110.697 253.696,110.506 253.696 C 110.314 253.696,110.252 253.544,110.367 253.358 C 110.482 253.172,110.842 253.089,111.168 253.174 C 111.746 253.326,112.553 252.423,112.176 252.046 C 112.080 251.950,112.279 251.944,112.619 252.033 C 112.959 252.122,113.331 252.042,113.446 251.856 C 113.561 251.670,113.499 251.518,113.307 251.518 C 113.116 251.518,113.053 251.365,113.169 251.179 C 113.284 250.993,113.644 250.910,113.969 250.995 C 114.548 251.147,115.355 250.244,114.978 249.867 C 114.881 249.771,115.105 249.771,115.474 249.868 C 115.983 250.001,116.189 249.878,116.324 249.362 C 116.430 248.955,116.671 248.746,116.923 248.842 C 117.354 249.008,118.097 248.006,117.779 247.688 C 117.683 247.592,117.882 247.586,118.222 247.675 C 118.562 247.764,118.949 247.660,119.082 247.445 C 119.256 247.163,119.167 247.114,118.762 247.269 C 118.277 247.455,118.256 247.417,118.611 246.989 C 118.838 246.717,119.278 246.560,119.589 246.642 C 120.360 246.843,120.286 246.490,119.427 245.867 C 118.750 245.375,118.673 245.391,117.733 246.212 M80.462 247.167 C 80.335 247.372,80.425 247.660,80.661 247.807 C 81.178 248.129,81.457 247.558,81.004 247.105 C 80.797 246.898,80.616 246.918,80.462 247.167 M77.696 249.256 C 77.376 249.576,77.493 250.631,77.826 250.425 C 78.000 250.317,78.068 250.110,77.978 249.963 C 77.887 249.817,78.060 249.647,78.362 249.586 C 78.858 249.486,78.861 249.456,78.396 249.273 C 78.113 249.161,77.798 249.154,77.696 249.256 M74.315 253.322 C 74.014 253.383,73.841 253.552,73.931 253.699 C 74.022 253.845,73.953 254.053,73.779 254.160 C 73.605 254.268,73.463 254.091,73.463 253.767 C 73.463 252.986,73.725 252.762,74.349 253.008 C 74.815 253.192,74.811 253.222,74.315 253.322 M65.244 258.940 C 65.136 259.114,65.200 259.350,65.385 259.465 C 65.864 259.761,66.173 259.356,65.773 258.956 C 65.550 258.732,65.375 258.727,65.244 258.940 M330.639 265.043 C 330.095 265.663,329.650 266.439,329.650 266.768 C 329.650 267.500,366.839 295.731,369.494 297.015 C 373.199 298.806,374.499 300.550,373.508 302.399 C 372.092 305.041,373.912 306.533,375.899 304.358 C 379.271 300.666,379.470 297.588,376.337 297.588 C 375.278 297.588,372.363 295.369,371.746 294.094 C 371.287 293.146,333.353 264.247,332.305 264.047 C 331.822 263.954,331.344 264.240,330.639 265.043 M85.929 274.537 C 85.681 274.694,85.365 274.754,85.229 274.669 C 85.092 274.585,84.981 274.674,84.981 274.866 C 84.981 275.244,86.159 275.002,86.677 274.518 C 87.072 274.148,86.521 274.162,85.929 274.537 M382.877 292.144 C 382.665 292.398,382.246 292.607,381.946 292.607 C 381.584 292.607,381.335 292.934,381.206 293.580 C 380.914 295.043,380.940 295.097,381.927 295.097 C 382.431 295.097,382.917 295.218,383.009 295.366 C 383.322 295.872,384.594 295.583,384.549 295.017 C 384.525 294.722,384.630 294.558,384.782 294.652 C 384.934 294.746,385.058 294.674,385.058 294.493 C 385.058 294.312,384.910 294.163,384.729 294.163 C 384.547 294.163,384.486 294.023,384.591 293.852 C 384.697 293.681,384.627 293.541,384.436 293.541 C 384.244 293.541,384.174 293.401,384.280 293.230 C 384.386 293.058,384.324 292.918,384.143 292.918 C 383.962 292.918,383.813 292.716,383.813 292.470 C 383.813 291.795,383.311 291.620,382.877 292.144 M369.641 309.146 C 369.336 310.536,371.251 311.291,372.607 310.316 C 373.011 310.026,373.005 310.002,372.567 310.141 C 372.288 310.229,371.909 310.150,371.724 309.966 C 371.484 309.725,371.249 309.745,370.898 310.036 C 370.464 310.397,370.443 310.350,370.720 309.624 C 370.977 308.946,370.930 308.751,370.442 308.490 C 369.937 308.220,369.824 308.312,369.641 309.146 M36.576 309.105 C 36.382 309.716,36.110 309.843,35.175 309.760 C 34.918 309.737,35.120 309.949,35.623 310.231 C 36.636 310.798,38.820 310.494,38.681 309.805 C 38.637 309.588,38.828 309.508,39.148 309.609 C 39.630 309.760,39.626 309.727,39.114 309.307 C 38.797 309.048,38.342 308.912,38.102 309.004 C 37.862 309.096,37.665 309.017,37.665 308.827 C 37.665 308.229,36.782 308.454,36.576 309.105 " stroke="none" fill="#f1f1f1" fill-rule="evenodd"></path><path id="path4" d="M363.346 11.429 C 363.817 11.501,364.588 11.501,365.058 11.429 C 365.529 11.358,365.144 11.300,364.202 11.300 C 363.261 11.300,362.875 11.358,363.346 11.429 M368.016 11.429 C 368.486 11.501,369.257 11.501,369.728 11.429 C 370.198 11.358,369.813 11.300,368.872 11.300 C 367.930 11.300,367.545 11.358,368.016 11.429 M373.997 12.308 C 374.847 12.542,375.596 12.679,375.660 12.615 C 375.816 12.459,373.517 11.825,372.918 11.858 C 372.661 11.873,373.147 12.075,373.997 12.308 M353.307 14.349 C 352.023 15.045,350.833 15.758,350.661 15.933 C 350.410 16.190,355.627 13.538,356.083 13.177 C 356.700 12.688,355.207 13.319,353.307 14.349 M378.677 14.098 C 382.990 16.431,386.455 19.538,388.818 23.192 C 390.220 25.359,390.861 25.981,389.700 24.047 C 387.044 19.622,379.458 13.022,377.095 13.081 C 376.938 13.085,377.650 13.543,378.677 14.098 M348.934 16.917 C 347.561 17.751,346.205 18.796,334.008 28.428 C 328.615 32.687,323.970 36.437,323.686 36.763 C 323.401 37.088,323.079 37.354,322.970 37.354 C 322.861 37.354,322.463 37.686,322.086 38.092 C 321.340 38.894,287.158 65.992,286.892 65.992 C 286.755 65.992,266.811 81.780,214.419 123.363 C 209.852 126.988,206.161 130.000,206.217 130.056 C 206.273 130.112,210.220 127.054,214.988 123.262 C 243.870 100.288,286.398 66.615,286.531 66.615 C 286.754 66.615,322.214 38.484,323.471 37.310 C 324.044 36.775,329.136 32.674,334.786 28.198 C 347.668 17.991,347.584 18.056,347.905 18.046 C 348.051 18.041,348.661 17.625,349.261 17.121 C 350.538 16.045,350.455 15.993,348.934 16.917 M392.262 30.195 C 392.262 30.451,392.382 30.942,392.529 31.284 C 392.698 31.676,392.797 31.734,392.797 31.440 C 392.797 31.183,392.676 30.693,392.529 30.350 C 392.361 29.958,392.262 29.900,392.262 30.195 M393.559 36.576 C 393.561 37.603,393.619 37.986,393.689 37.426 C 393.758 36.867,393.756 36.026,393.685 35.559 C 393.614 35.091,393.558 35.549,393.559 36.576 M393.556 43.268 C 393.556 44.210,393.615 44.595,393.686 44.125 C 393.757 43.654,393.757 42.883,393.686 42.412 C 393.615 41.942,393.556 42.327,393.556 43.268 M392.152 49.658 C 392.056 49.996,391.882 50.553,391.766 50.895 C 391.651 51.237,391.784 51.124,392.062 50.643 C 392.341 50.162,392.514 49.605,392.448 49.406 C 392.381 49.206,392.248 49.320,392.152 49.658 M391.284 51.893 C 391.284 52.197,388.313 56.930,387.897 57.287 C 387.791 57.378,386.864 58.365,385.837 59.480 C 384.429 61.008,384.588 60.889,386.480 58.997 C 388.854 56.624,391.914 52.200,391.481 51.767 C 391.373 51.658,391.284 51.715,391.284 51.893 M382.028 62.815 C 381.303 63.450,375.454 68.101,369.031 73.152 C 324.105 108.476,248.796 168.267,252.451 165.709 C 252.924 165.378,296.821 130.593,335.765 99.689 C 347.470 90.401,357.117 82.802,357.204 82.802 C 357.424 82.802,380.809 64.238,382.378 62.818 C 383.082 62.181,383.588 61.660,383.502 61.660 C 383.416 61.661,382.753 62.180,382.028 62.815 M204.798 129.813 C 204.527 129.966,204.330 130.412,204.362 130.804 C 204.393 131.196,204.303 131.595,204.160 131.689 C 204.017 131.783,203.863 132.378,203.818 133.011 C 203.773 133.644,203.630 134.162,203.502 134.163 C 203.374 134.163,203.268 134.549,203.268 135.019 C 203.267 137.022,200.983 144.843,199.769 146.999 C 196.950 152.008,195.490 152.856,192.640 151.140 L 191.284 150.323 192.374 151.294 C 195.912 154.446,200.649 157.510,201.985 157.510 C 203.213 157.510,205.578 153.791,206.735 150.039 C 207.634 147.124,207.763 134.475,206.893 134.475 C 206.746 134.475,206.705 134.269,206.801 134.018 C 206.898 133.766,206.828 133.469,206.646 133.356 C 206.421 133.217,206.437 133.077,206.696 132.916 C 206.978 132.742,206.918 132.522,206.465 132.068 C 205.952 131.555,205.924 131.410,206.297 131.175 C 206.961 130.756,205.493 129.422,204.798 129.813 M183.891 157.470 C 186.253 159.790,186.275 160.047,184.202 161.239 C 180.015 163.649,171.380 165.856,164.047 166.391 C 163.276 166.447,162.576 166.520,162.490 166.552 C 162.405 166.584,162.237 166.596,162.117 166.579 C 161.997 166.562,161.156 166.700,160.249 166.886 C 159.342 167.072,158.387 167.252,158.127 167.285 C 156.788 167.455,156.565 168.127,157.655 168.710 C 158.277 169.043,158.513 169.046,158.900 168.725 C 159.472 168.250,159.540 168.720,158.988 169.339 C 158.667 169.700,158.680 169.717,159.066 169.440 C 159.323 169.256,160.304 169.152,161.245 169.208 C 163.545 169.345,169.948 169.666,172.451 169.769 C 177.304 169.969,184.832 168.924,187.860 167.631 C 188.374 167.412,189.284 167.052,189.883 166.830 C 191.161 166.359,192.685 165.359,192.685 164.993 C 192.685 164.338,189.539 161.364,185.924 158.600 C 182.169 155.730,182.055 155.666,183.891 157.470 M232.996 164.905 C 226.880 165.299,218.026 167.746,217.470 169.196 C 217.173 169.971,219.090 172.057,222.616 174.796 C 224.559 176.305,226.428 177.760,226.770 178.030 C 227.113 178.300,226.658 177.724,225.759 176.750 C 224.860 175.776,224.125 174.764,224.125 174.502 C 224.125 172.826,236.445 169.045,244.514 168.245 C 245.198 168.178,246.389 168.036,247.160 167.931 C 248.477 167.752,249.813 167.575,251.445 167.365 C 253.237 167.134,252.777 165.658,250.895 165.600 C 247.371 165.492,246.595 165.408,246.641 165.136 C 246.669 164.965,246.482 164.877,246.226 164.941 C 245.969 165.005,244.148 165.023,242.179 164.982 C 234.951 164.833,234.218 164.826,232.996 164.905 M148.482 175.604 C 143.774 179.365,136.002 185.552,131.211 189.353 C 119.551 198.603,116.439 201.306,114.182 204.144 C 112.333 206.469,109.861 210.991,109.905 211.968 C 109.917 212.234,110.108 211.960,110.330 211.359 C 112.986 204.155,113.535 203.639,144.903 178.849 C 158.334 168.234,157.753 168.706,157.339 168.741 C 157.176 168.754,153.191 171.843,148.482 175.604 M206.568 177.763 C 203.238 181.720,202.135 185.450,202.247 192.374 C 202.284 194.685,202.327 197.381,202.342 198.366 C 202.357 199.350,202.480 200.156,202.616 200.156 C 202.995 200.156,202.922 202.746,202.528 203.242 C 202.229 203.618,202.291 203.622,202.957 203.268 C 203.681 202.884,203.704 202.893,203.288 203.397 C 202.999 203.748,202.954 204.012,203.160 204.148 C 203.510 204.378,159.384 239.542,152.202 244.756 C 151.479 245.281,151.477 245.292,152.159 244.969 C 153.257 244.448,156.469 241.945,180.820 222.639 C 195.633 210.895,203.534 204.822,203.880 204.912 C 204.170 204.988,204.668 204.859,204.987 204.626 C 205.306 204.393,205.398 204.202,205.193 204.202 C 204.904 204.202,204.904 204.067,205.196 203.600 C 205.403 203.269,205.684 203.066,205.820 203.151 C 205.957 203.235,205.929 202.938,205.759 202.490 C 205.540 201.915,205.548 201.737,205.787 201.885 C 205.998 202.016,206.097 201.820,206.051 201.358 C 206.010 200.953,206.057 200.412,206.153 200.156 C 206.250 199.899,206.411 199.128,206.510 198.444 C 207.223 193.525,208.619 189.657,211.048 185.870 C 213.778 181.614,214.087 181.500,217.432 183.510 C 219.744 184.900,219.535 184.692,215.253 181.341 C 209.739 177.027,207.844 176.246,206.568 177.763 M271.566 213.463 C 271.550 213.934,271.302 215.720,271.015 217.432 C 270.729 219.144,270.389 221.175,270.260 221.946 C 270.095 222.935,269.894 223.317,269.575 223.245 C 269.248 223.173,269.292 223.345,269.733 223.868 C 270.069 224.266,270.369 224.638,270.399 224.696 C 270.661 225.185,271.236 222.838,271.590 219.836 C 271.826 217.829,272.172 215.512,272.358 214.688 C 272.544 213.864,272.616 213.058,272.517 212.898 C 272.150 212.304,271.594 212.634,271.566 213.463 M131.609 214.706 C 131.003 215.970,127.486 218.521,126.350 218.521 C 125.741 218.521,124.825 218.971,123.696 219.824 C 122.022 221.087,121.932 221.116,120.684 220.783 C 119.222 220.393,118.998 220.474,116.509 222.309 C 114.135 224.059,113.712 224.197,111.686 223.879 C 110.712 223.726,109.733 223.714,109.510 223.852 C 109.189 224.052,109.070 223.286,108.935 220.145 L 108.765 216.187 108.702 220.285 C 108.656 223.235,108.529 224.423,108.249 224.523 C 107.195 224.899,108.493 225.081,109.873 224.750 C 111.119 224.451,111.550 224.451,111.913 224.753 C 112.747 225.445,112.467 225.968,111.358 225.788 C 110.473 225.645,110.144 225.810,108.790 227.083 L 107.237 228.542 107.938 229.017 C 108.323 229.278,108.638 229.685,108.638 229.921 C 108.638 230.571,107.595 230.435,107.154 229.728 C 106.706 229.011,105.279 228.886,105.027 229.541 C 104.935 229.781,104.589 230.048,104.259 230.135 C 103.509 230.331,103.477 230.875,104.202 231.085 C 104.652 231.216,104.638 231.241,104.125 231.228 C 103.782 231.219,103.397 231.246,103.268 231.287 C 103.140 231.328,102.860 231.381,102.646 231.404 C 102.429 231.428,102.288 231.788,102.327 232.221 C 102.365 232.647,102.316 232.815,102.219 232.594 C 102.073 232.265,101.952 232.265,101.556 232.594 C 101.290 232.815,101.023 232.961,100.964 232.918 C 100.608 232.662,100.527 232.911,100.843 233.292 C 101.156 233.669,101.073 233.733,100.336 233.681 C 99.675 233.634,99.466 233.751,99.496 234.151 C 99.519 234.444,99.449 234.673,99.341 234.659 C 99.233 234.646,99.039 234.669,98.911 234.710 C 98.782 234.752,98.502 234.805,98.288 234.828 C 98.074 234.852,97.939 235.161,97.988 235.516 C 98.057 236.021,97.921 236.149,97.365 236.100 C 96.370 236.014,96.092 236.242,96.537 236.779 C 96.861 237.169,96.798 237.207,96.119 237.037 C 95.206 236.808,94.621 237.407,95.291 237.885 C 95.630 238.127,95.612 238.157,95.206 238.027 C 94.923 237.938,94.596 237.959,94.479 238.076 C 94.363 238.193,94.139 238.305,93.982 238.327 C 93.825 238.348,93.609 238.383,93.503 238.405 C 93.396 238.426,93.483 238.654,93.696 238.911 C 94.136 239.441,94.167 239.417,92.918 239.526 C 91.676 239.635,91.695 239.619,92.156 240.175 C 92.509 240.600,92.459 240.636,91.761 240.461 C 90.848 240.232,90.263 240.831,90.933 241.309 C 91.272 241.551,91.255 241.581,90.848 241.452 C 90.565 241.362,90.238 241.383,90.121 241.500 C 90.005 241.617,89.746 241.714,89.546 241.715 C 89.346 241.717,89.222 242.005,89.270 242.356 C 89.340 242.869,89.189 242.989,88.492 242.975 C 87.872 242.962,87.649 243.096,87.706 243.449 C 87.759 243.781,87.557 243.933,87.083 243.916 C 86.604 243.899,86.394 244.060,86.423 244.424 C 86.445 244.716,86.375 244.945,86.267 244.931 C 86.159 244.918,85.965 244.941,85.837 244.983 C 85.708 245.024,85.428 245.079,85.214 245.104 C 85.000 245.130,84.861 245.369,84.904 245.636 C 84.948 245.903,84.779 246.122,84.529 246.122 C 84.279 246.122,84.165 245.970,84.276 245.785 C 84.411 245.559,84.329 245.563,84.029 245.797 C 83.782 245.989,83.334 246.106,83.034 246.057 C 82.707 246.005,82.571 246.104,82.695 246.306 C 82.828 246.520,82.715 246.570,82.386 246.444 C 82.027 246.306,81.866 246.410,81.863 246.780 C 81.859 247.239,81.815 247.249,81.556 246.848 C 81.242 246.361,81.132 246.607,81.233 247.572 C 81.283 248.050,81.192 248.087,80.665 247.805 C 80.162 247.536,79.955 247.582,79.629 248.035 C 79.405 248.346,78.946 248.705,78.608 248.831 C 78.093 249.024,78.068 249.108,78.452 249.351 C 78.834 249.592,78.816 249.641,78.347 249.645 C 78.038 249.648,77.865 249.780,77.963 249.940 C 78.062 250.099,78.000 250.317,77.826 250.425 C 77.652 250.532,77.510 250.374,77.510 250.073 C 77.510 249.637,77.431 249.604,77.123 249.912 C 76.815 250.220,76.831 250.365,77.201 250.626 C 77.591 250.901,77.580 250.926,77.129 250.782 C 76.810 250.679,76.467 250.825,76.282 251.141 C 76.086 251.478,75.969 251.523,75.963 251.266 C 75.958 251.042,75.795 250.956,75.602 251.075 C 75.365 251.222,75.428 251.391,75.795 251.597 C 76.097 251.766,76.426 251.781,76.535 251.631 C 77.570 250.208,79.444 250.545,80.171 252.285 C 80.743 253.654,83.291 255.875,84.290 255.875 C 84.773 255.875,85.902 255.198,87.274 254.086 C 88.488 253.101,95.915 247.292,103.779 241.177 L 118.078 230.059 119.817 230.238 C 122.458 230.509,123.276 229.680,124.023 225.977 C 124.209 225.056,126.173 223.813,127.445 223.813 C 127.900 223.813,128.351 223.598,128.453 223.333 C 128.554 223.069,129.145 222.593,129.766 222.275 C 134.371 219.919,135.989 217.161,134.022 215.019 C 132.747 213.631,132.161 213.555,131.609 214.706 M282.187 214.887 C 280.030 215.831,282.327 221.108,285.413 222.299 C 286.589 222.752,286.494 222.452,284.986 220.943 C 283.268 219.225,282.950 217.470,284.389 217.645 C 285.020 217.722,285.292 218.017,285.621 218.988 C 286.461 221.458,288.038 222.143,290.152 220.954 C 292.736 219.502,291.258 215.720,288.106 215.720 C 287.317 215.720,286.360 215.520,285.981 215.276 C 284.941 214.606,283.230 214.431,282.187 214.887 M133.852 217.031 C 133.852 217.987,130.624 221.012,129.604 221.012 C 129.162 221.012,128.481 221.390,127.998 221.904 C 127.537 222.395,126.801 222.882,126.363 222.985 C 124.203 223.494,122.659 225.275,122.651 227.267 C 122.643 229.006,121.851 229.530,119.617 229.270 L 117.798 229.059 103.559 240.127 C 95.727 246.214,89.058 251.334,88.739 251.505 C 87.875 251.968,87.361 251.224,87.781 250.119 C 88.041 249.436,88.021 249.300,87.682 249.430 C 86.960 249.707,86.478 249.219,86.926 248.665 C 87.140 248.400,92.034 244.522,97.802 240.047 C 103.570 235.572,108.472 231.659,108.697 231.352 C 108.921 231.044,109.660 230.658,110.337 230.494 C 111.239 230.275,111.782 229.880,112.363 229.023 C 112.799 228.379,113.631 227.563,114.210 227.211 C 114.789 226.859,116.645 225.460,118.334 224.102 C 120.024 222.745,121.580 221.632,121.792 221.629 C 122.005 221.625,122.802 221.201,123.563 220.685 C 124.325 220.169,125.112 219.810,125.313 219.887 C 127.501 220.727,132.100 218.743,132.866 216.629 C 133.078 216.046,133.852 216.362,133.852 217.031 M288.265 219.300 C 288.241 219.762,287.545 219.677,287.383 219.192 C 287.296 218.930,287.438 218.814,287.763 218.881 C 288.048 218.940,288.275 219.128,288.265 219.300 M117.510 239.163 C 98.669 253.836,93.745 257.817,93.325 258.713 C 93.021 259.360,91.931 260.519,90.757 261.442 C 89.634 262.324,88.716 263.190,88.716 263.367 C 88.716 264.008,89.626 265.392,90.715 266.407 C 91.328 266.977,91.829 267.701,91.829 268.015 C 91.829 268.330,91.914 268.809,92.018 269.080 C 92.123 269.355,92.047 269.572,91.844 269.572 C 91.644 269.572,91.566 269.434,91.671 269.264 C 91.779 269.090,91.658 269.035,91.392 269.137 C 91.026 269.277,91.004 269.404,91.294 269.714 C 91.828 270.286,93.215 269.727,93.655 268.761 C 93.850 268.332,94.128 268.053,94.271 268.142 C 94.560 268.320,97.849 265.527,97.620 265.298 C 97.541 265.219,97.741 264.683,98.065 264.106 C 98.410 263.491,98.530 262.981,98.354 262.872 C 98.189 262.770,98.046 262.870,98.035 263.094 C 98.024 263.319,97.879 263.160,97.712 262.743 C 97.477 262.156,97.518 261.922,97.889 261.715 C 98.153 261.567,98.743 261.099,99.200 260.676 C 99.657 260.252,100.496 259.618,101.066 259.266 C 101.635 258.914,102.101 258.483,102.101 258.307 C 102.101 258.132,102.277 258.055,102.492 258.138 C 102.707 258.220,103.063 258.095,103.282 257.860 C 103.502 257.624,103.575 257.432,103.445 257.432 C 103.315 257.432,103.519 257.214,103.900 256.947 C 104.281 256.680,104.736 256.551,104.911 256.659 C 105.086 256.767,105.191 256.692,105.144 256.492 C 105.097 256.292,105.336 255.967,105.676 255.769 C 106.016 255.571,106.486 255.154,106.720 254.843 C 106.955 254.532,107.340 254.352,107.577 254.443 C 107.814 254.534,107.975 254.449,107.934 254.255 C 107.893 254.062,108.141 253.752,108.484 253.566 C 109.021 253.277,110.365 252.170,111.561 251.033 C 111.994 250.621,113.068 250.155,113.408 250.231 C 113.549 250.262,113.580 250.150,113.476 249.982 C 113.249 249.615,116.324 247.271,116.838 247.419 C 117.036 247.476,117.097 247.421,116.973 247.297 C 116.504 246.828,118.703 245.291,119.217 245.729 C 120.040 246.430,120.363 246.523,120.363 246.056 C 120.363 245.807,120.089 245.603,119.754 245.603 C 119.246 245.603,119.210 245.525,119.536 245.132 C 119.837 244.770,120.027 244.744,120.360 245.021 C 120.705 245.307,120.753 245.277,120.596 244.869 C 120.484 244.575,120.555 244.358,120.763 244.358 C 120.963 244.358,121.063 244.253,120.985 244.125 C 120.815 243.843,121.578 243.083,121.804 243.309 C 121.891 243.396,122.265 243.282,122.634 243.057 C 123.249 242.681,123.403 242.756,124.454 243.941 C 125.947 245.623,127.917 246.024,129.361 244.940 C 132.933 242.255,133.564 240.356,131.673 237.977 C 130.483 236.479,130.498 236.286,131.907 234.943 C 132.549 234.331,133.418 233.376,133.838 232.820 C 134.970 231.324,140.621 226.927,141.417 226.923 C 142.107 226.920,146.129 223.990,146.432 223.268 C 146.722 222.576,146.309 222.072,144.883 221.379 C 141.901 219.931,143.726 218.745,117.510 239.163 M296.720 223.281 C 295.740 225.990,298.330 228.939,300.733 227.853 C 303.465 226.619,303.733 226.062,302.375 224.449 C 300.566 222.298,297.318 221.628,296.720 223.281 M144.307 222.835 C 143.963 223.393,140.734 225.433,140.382 225.315 C 139.888 225.151,143.194 222.580,143.909 222.573 C 144.219 222.570,144.398 222.688,144.307 222.835 M110.065 227.424 C 108.664 228.640,107.524 228.927,108.512 227.815 C 109.258 226.976,110.888 225.958,111.114 226.190 C 111.208 226.287,110.735 226.842,110.065 227.424 M120.996 226.189 C 120.506 226.679,120.797 227.278,121.479 227.181 C 121.864 227.126,122.179 226.874,122.179 226.619 C 122.179 226.124,121.359 225.826,120.996 226.189 M302.490 228.898 C 301.050 229.449,301.312 230.229,303.502 231.907 C 304.272 232.497,304.973 233.055,305.058 233.146 C 305.144 233.237,306.926 234.608,309.017 236.192 C 312.663 238.953,313.340 239.290,313.847 238.599 C 313.993 238.401,314.078 238.418,314.081 238.645 C 314.086 239.037,310.367 240.934,309.592 240.934 C 309.324 240.934,309.105 241.149,309.105 241.412 C 309.105 242.108,308.479 241.712,303.725 238.002 C 296.787 232.589,296.555 232.489,294.420 233.968 C 293.198 234.814,292.728 234.826,290.830 234.054 C 288.824 233.238,286.410 235.491,286.388 238.199 C 286.384 238.716,286.011 239.424,285.429 240.019 C 284.044 241.436,284.361 242.377,287.115 245.024 C 288.337 246.199,289.442 247.160,289.571 247.160 C 289.700 247.160,289.805 247.300,289.805 247.471 C 289.805 247.642,290.016 247.782,290.272 247.782 C 290.529 247.782,290.739 247.927,290.739 248.103 C 290.739 248.280,290.955 248.507,291.219 248.608 C 291.482 248.709,292.185 249.265,292.781 249.844 C 293.376 250.422,294.014 250.895,294.197 250.895 C 294.380 250.895,294.809 251.210,295.149 251.595 C 295.489 251.981,295.676 252.086,295.565 251.829 C 295.454 251.572,295.694 251.747,296.098 252.218 C 296.502 252.689,297.081 253.074,297.384 253.074 C 297.687 253.074,297.859 253.198,297.765 253.350 C 297.671 253.502,297.830 253.817,298.118 254.050 C 298.567 254.415,298.607 254.409,298.402 254.008 C 298.271 253.751,298.466 253.926,298.836 254.397 C 299.205 254.868,299.784 255.253,300.122 255.253 C 300.460 255.253,300.650 255.394,300.543 255.566 C 300.437 255.739,300.604 255.975,300.914 256.091 C 301.225 256.207,301.662 256.556,301.885 256.867 C 302.109 257.178,302.479 257.432,302.708 257.432 C 302.937 257.432,303.205 257.642,303.303 257.899 C 303.402 258.156,303.767 258.366,304.115 258.366 C 304.463 258.366,304.732 258.471,304.713 258.599 C 304.411 260.695,306.589 259.585,307.376 257.242 C 307.661 256.395,308.117 255.846,308.894 255.415 L 310.005 254.799 311.034 255.546 C 311.599 255.957,315.392 258.867,319.463 262.013 C 325.223 266.465,327.093 267.750,327.900 267.813 C 328.698 267.876,330.680 269.212,336.530 273.630 C 349.975 283.783,368.483 297.700,370.592 299.242 C 373.125 301.094,373.170 301.214,372.142 303.314 C 371.080 305.486,372.239 306.116,359.377 296.374 C 332.393 275.935,326.216 271.416,326.238 272.129 C 326.250 272.534,327.928 273.865,350.428 291.312 C 360.823 299.373,362.957 301.156,362.957 301.784 C 362.957 302.368,363.542 302.979,365.525 304.467 C 368.769 306.901,368.905 307.074,368.679 308.490 C 368.440 309.985,369.336 310.536,369.653 309.089 C 369.825 308.309,369.940 308.221,370.442 308.490 C 370.936 308.754,370.979 308.942,370.710 309.655 C 370.452 310.340,370.466 310.430,370.782 310.117 C 371.207 309.696,371.802 309.578,371.565 309.962 C 371.485 310.091,371.892 310.208,372.468 310.223 C 373.087 310.239,373.437 310.123,373.324 309.940 C 373.219 309.770,373.289 309.727,373.478 309.845 C 374.064 310.207,377.899 306.075,377.899 305.082 C 377.899 304.898,378.015 304.747,378.157 304.747 C 379.084 304.747,380.333 302.051,379.859 301.073 C 379.482 300.293,379.458 299.982,379.751 299.630 C 380.195 299.094,381.533 299.480,381.383 300.101 C 381.307 300.415,381.382 300.417,381.754 300.108 C 382.250 299.696,382.128 299.000,381.411 298.163 C 380.888 297.553,381.468 296.985,382.035 297.552 C 382.800 298.317,384.613 297.479,384.249 296.529 C 384.161 296.299,384.307 296.028,384.574 295.925 C 385.099 295.724,385.229 294.928,384.782 294.652 C 384.630 294.558,384.525 294.722,384.549 295.017 C 384.594 295.583,383.322 295.872,383.009 295.366 C 382.917 295.218,382.413 295.097,381.888 295.097 C 380.985 295.097,380.944 295.045,381.128 294.125 C 381.235 293.589,381.323 293.029,381.323 292.879 C 381.323 292.730,381.575 292.607,381.883 292.607 C 382.479 292.607,383.191 292.047,383.191 291.577 C 383.191 291.421,382.709 291.350,382.120 291.419 C 381.186 291.528,380.661 291.252,378.003 289.261 C 374.855 286.902,373.783 286.554,373.601 287.831 C 373.525 288.364,374.124 288.962,376.490 290.717 L 379.475 292.932 379.267 294.559 C 378.927 297.228,377.975 297.227,374.558 294.555 C 369.240 290.397,333.550 263.475,332.848 263.091 C 332.070 262.667,332.055 262.672,330.074 264.122 C 329.519 264.528,329.836 264.746,320.593 257.588 C 311.880 250.840,312.163 251.163,313.287 249.246 C 313.726 248.496,314.086 247.576,314.086 247.200 C 314.086 246.507,314.214 246.420,315.696 246.096 C 316.153 245.996,316.924 245.588,317.408 245.189 C 318.335 244.425,319.527 243.864,319.242 244.326 C 319.106 244.546,320.726 245.916,324.514 248.782 C 324.685 248.912,325.277 249.380,325.830 249.823 C 326.391 250.272,326.997 250.528,327.201 250.402 C 327.416 250.270,327.484 250.310,327.367 250.500 C 327.089 250.949,327.975 251.623,328.469 251.339 C 328.690 251.211,328.766 251.223,328.637 251.365 C 328.278 251.761,329.330 252.746,329.886 252.533 C 330.168 252.425,330.294 252.476,330.184 252.654 C 329.974 252.993,330.202 253.208,332.893 255.220 C 333.899 255.972,334.630 256.437,334.516 256.253 C 334.402 256.069,334.436 255.840,334.592 255.744 C 334.748 255.647,334.968 255.938,335.081 256.389 L 335.287 257.210 335.773 256.517 C 336.130 256.006,336.167 255.731,335.912 255.476 C 335.656 255.220,335.564 255.237,335.564 255.540 C 335.564 255.869,335.471 255.875,335.101 255.567 C 334.846 255.355,334.708 255.068,334.794 254.928 C 334.881 254.788,334.820 254.592,334.659 254.492 C 334.498 254.393,334.302 254.558,334.223 254.860 C 334.088 255.378,334.078 255.379,334.044 254.864 C 334.024 254.564,333.859 254.319,333.678 254.319 C 333.497 254.319,333.425 254.195,333.519 254.043 C 333.613 253.891,333.494 253.604,333.254 253.405 C 332.950 253.154,332.756 253.144,332.613 253.375 C 332.329 253.835,331.819 253.462,332.019 252.940 C 332.109 252.706,332.033 252.422,331.850 252.309 C 331.667 252.196,331.518 252.257,331.518 252.445 C 331.518 252.665,331.362 252.644,331.080 252.386 C 330.840 252.165,330.665 251.863,330.691 251.715 C 330.718 251.566,330.483 251.402,330.170 251.349 C 329.817 251.290,329.659 251.403,329.752 251.645 C 329.834 251.860,329.717 252.036,329.492 252.036 C 329.195 252.036,329.156 251.842,329.349 251.334 C 329.544 250.820,329.479 250.521,329.106 250.219 C 328.787 249.960,328.680 249.944,328.819 250.176 C 328.962 250.415,328.828 250.530,328.442 250.501 C 328.047 250.471,327.879 250.268,327.949 249.904 C 328.007 249.600,327.924 249.270,327.763 249.171 C 327.602 249.072,327.471 249.144,327.471 249.332 C 327.471 249.552,327.316 249.531,327.037 249.273 C 326.798 249.052,326.660 248.776,326.730 248.660 C 326.940 248.313,326.128 247.952,325.292 248.020 C 324.659 248.072,324.621 248.038,325.089 247.840 C 325.611 247.619,325.618 247.559,325.166 247.185 C 324.818 246.895,324.669 246.880,324.669 247.134 C 324.669 247.390,324.541 247.378,324.232 247.094 C 323.992 246.873,323.817 246.571,323.843 246.423 C 323.869 246.274,323.640 246.111,323.333 246.059 C 322.898 245.986,322.816 246.113,322.959 246.640 C 323.124 247.248,323.108 247.259,322.790 246.752 C 322.597 246.442,322.514 245.991,322.606 245.750 C 322.824 245.183,322.229 244.822,321.245 244.926 C 320.636 244.990,320.568 244.940,320.931 244.696 C 321.301 244.447,321.317 244.305,321.009 243.997 C 320.758 243.746,320.623 243.730,320.623 243.951 C 320.623 244.138,320.414 244.371,320.159 244.469 C 319.905 244.567,319.730 244.522,319.770 244.369 C 319.811 244.216,319.564 243.860,319.222 243.579 C 318.879 243.297,318.774 243.155,318.988 243.264 C 319.202 243.372,319.377 243.313,319.377 243.131 C 319.377 242.950,319.132 242.800,318.833 242.797 C 318.533 242.795,317.991 242.713,317.628 242.616 C 317.113 242.478,316.925 242.608,316.774 243.208 C 316.482 244.375,315.703 244.485,314.356 243.551 C 312.522 242.280,312.390 242.022,313.195 241.272 C 313.892 240.622,315.225 240.350,314.866 240.930 C 314.753 241.114,314.894 241.154,315.216 241.031 C 315.698 240.846,315.683 240.790,315.077 240.520 C 314.580 240.298,314.397 239.944,314.397 239.208 C 314.397 238.580,314.213 238.128,313.910 238.012 C 313.643 237.909,313.498 237.705,313.589 237.557 C 313.757 237.286,312.345 235.780,311.959 235.819 C 311.845 235.830,311.498 235.518,311.188 235.124 C 310.879 234.731,310.519 234.441,310.388 234.481 C 310.257 234.520,309.780 234.132,309.326 233.619 C 308.847 233.076,308.498 232.867,308.492 233.120 C 308.487 233.359,308.162 233.079,307.770 232.497 C 307.378 231.916,306.900 231.440,306.708 231.440 C 306.517 231.440,306.057 231.054,305.687 230.584 C 305.316 230.113,304.871 229.728,304.697 229.728 C 304.522 229.728,304.147 229.467,303.863 229.149 C 303.436 228.671,303.198 228.627,302.490 228.898 M112.157 230.534 L 111.284 231.341 112.296 230.669 C 113.222 230.053,113.524 229.728,113.169 229.728 C 113.093 229.728,112.638 230.091,112.157 230.534 M132.918 231.273 C 132.918 231.438,132.043 232.300,130.973 233.190 C 129.903 234.080,128.887 234.996,128.716 235.226 C 128.332 235.742,126.294 236.371,126.441 235.929 C 126.719 235.097,132.918 230.640,132.918 231.273 M291.254 235.175 C 292.686 235.773,293.537 235.765,294.422 235.146 C 295.542 234.362,296.026 234.653,304.436 241.180 C 313.936 248.553,313.581 247.810,309.940 252.685 C 308.335 254.833,308.403 254.853,303.251 250.810 C 298.126 246.789,296.433 245.486,291.770 241.975 C 286.747 238.193,286.483 237.671,288.552 235.602 C 289.583 234.571,289.747 234.545,291.254 235.175 M124.514 237.686 C 124.514 238.233,123.720 239.167,122.710 239.806 C 122.076 240.208,115.762 245.037,108.680 250.537 C 101.599 256.037,95.668 260.453,95.502 260.350 C 95.074 260.086,94.430 260.613,109.960 248.513 C 123.119 238.260,124.514 237.222,124.514 237.686 M127.626 238.444 C 127.626 238.946,127.834 239.066,128.705 239.066 C 130.795 239.066,130.836 240.937,128.774 242.194 C 126.997 243.278,125.470 242.326,126.349 240.682 C 126.820 239.803,126.780 239.377,126.226 239.377 C 125.665 239.377,125.613 238.714,126.132 238.195 C 126.734 237.593,127.626 237.742,127.626 238.444 M295.898 240.489 C 294.864 241.523,295.497 242.805,297.791 244.325 C 299.490 245.451,300.086 245.520,300.845 244.682 C 302.420 242.941,297.562 238.824,295.898 240.489 M132.296 241.136 C 132.296 241.779,128.896 244.970,128.205 244.976 C 127.106 244.986,127.350 244.085,128.655 243.316 C 129.374 242.892,130.373 242.113,130.875 241.584 C 131.901 240.505,132.296 240.380,132.296 241.136 M298.530 242.030 C 299.782 242.953,300.216 243.614,299.757 243.897 C 299.182 244.252,296.484 242.083,296.821 241.538 C 297.095 241.095,297.370 241.174,298.530 242.030 M148.949 246.546 C 147.751 247.222,146.897 247.776,147.052 247.778 C 147.397 247.783,151.284 245.628,151.284 245.432 C 151.284 245.228,151.318 245.211,148.949 246.546 M121.712 245.887 C 121.712 246.205,126.280 248.321,127.471 248.554 C 127.984 248.655,127.558 248.410,126.523 248.011 C 125.488 247.611,123.982 246.916,123.177 246.466 C 122.371 246.015,121.712 245.755,121.712 245.887 M142.257 248.885 C 141.081 249.155,140.837 249.280,141.479 249.285 C 141.992 249.288,142.973 249.106,143.658 248.880 C 145.221 248.365,144.506 248.367,142.257 248.885 M130.195 249.242 C 130.494 249.320,130.984 249.320,131.284 249.242 C 131.584 249.164,131.339 249.099,130.739 249.099 C 130.140 249.099,129.895 249.164,130.195 249.242 M132.529 249.558 C 132.914 249.632,133.545 249.632,133.930 249.558 C 134.315 249.484,134.000 249.423,133.230 249.423 C 132.459 249.423,132.144 249.484,132.529 249.558 M138.758 249.559 C 139.146 249.633,139.706 249.630,140.004 249.552 C 140.301 249.474,139.984 249.414,139.300 249.417 C 138.615 249.420,138.371 249.484,138.758 249.559 M113.152 251.206 C 113.046 251.377,113.169 251.518,113.426 251.518 C 113.683 251.518,113.980 251.377,114.086 251.206 C 114.191 251.035,114.068 250.895,113.811 250.895 C 113.554 250.895,113.258 251.035,113.152 251.206 M74.240 252.142 C 74.005 252.522,74.859 252.899,75.316 252.616 C 75.495 252.505,75.642 252.283,75.642 252.122 C 75.642 251.729,74.485 251.746,74.240 252.142 M73.649 252.992 C 73.329 253.312,73.446 254.366,73.779 254.160 C 73.953 254.053,74.022 253.845,73.931 253.699 C 73.841 253.552,74.014 253.383,74.315 253.322 C 74.811 253.222,74.815 253.192,74.349 253.008 C 74.067 252.897,73.751 252.889,73.649 252.992 M110.350 253.385 C 110.244 253.556,110.368 253.696,110.625 253.696 C 110.882 253.696,111.178 253.556,111.284 253.385 C 111.390 253.214,111.266 253.074,111.010 253.074 C 110.753 253.074,110.456 253.214,110.350 253.385 M71.440 254.319 C 71.334 254.490,71.361 254.635,71.499 254.640 C 71.831 254.652,70.591 255.390,70.220 255.400 C 70.064 255.405,69.873 255.595,69.797 255.824 C 69.702 256.109,69.889 256.206,70.393 256.135 C 70.798 256.078,71.101 255.891,71.067 255.720 C 71.034 255.549,71.349 255.229,71.768 255.010 C 72.186 254.790,72.529 254.475,72.529 254.309 C 72.529 253.913,71.686 253.920,71.440 254.319 M68.711 256.373 C 68.609 256.475,68.608 256.790,68.709 257.073 C 68.810 257.356,68.778 257.484,68.639 257.357 C 68.499 257.230,68.169 257.300,67.907 257.512 C 67.512 257.832,67.471 257.818,67.668 257.432 C 67.799 257.175,67.690 257.231,67.426 257.556 C 67.162 257.880,67.005 258.241,67.076 258.357 C 67.148 258.473,66.898 258.557,66.521 258.544 C 66.016 258.527,65.863 258.676,65.938 259.108 C 66.014 259.550,65.908 259.645,65.509 259.492 C 64.863 259.244,64.102 259.813,64.320 260.381 C 64.419 260.639,64.266 260.776,63.912 260.747 C 63.601 260.721,63.381 260.875,63.424 261.089 C 63.467 261.304,63.354 261.479,63.172 261.479 C 62.991 261.479,62.923 261.609,63.022 261.768 C 63.120 261.928,63.056 262.148,62.879 262.257 C 62.703 262.366,62.639 262.586,62.737 262.745 C 62.836 262.905,62.693 263.035,62.421 263.035 C 62.149 263.035,61.846 263.244,61.747 263.500 C 61.649 263.756,61.444 263.888,61.290 263.793 C 61.137 263.698,61.012 264.259,61.012 265.039 L 61.012 266.457 56.576 269.983 C 54.136 271.922,46.914 277.666,40.527 282.747 C 29.207 291.752,28.167 292.450,27.422 291.552 C 26.605 290.568,25.445 290.722,25.649 291.788 C 25.788 292.514,25.754 292.644,25.513 292.296 C 25.264 291.935,25.211 292.041,25.280 292.763 C 25.415 294.166,27.781 294.301,29.310 292.993 C 30.762 291.750,61.106 268.412,63.144 266.971 C 64.773 265.819,65.853 265.649,65.487 266.603 C 65.346 266.969,65.526 267.082,66.252 267.082 C 67.810 267.082,67.790 267.706,66.187 269.117 C 64.691 270.433,64.485 270.954,64.884 272.414 C 65.097 273.194,64.370 273.810,49.412 285.529 C 31.794 299.330,32.725 298.670,31.803 298.025 C 30.832 297.345,28.116 298.003,26.148 299.396 C 26.063 299.457,26.253 299.696,26.571 299.929 C 26.936 300.196,27.279 300.245,27.504 300.063 C 29.950 298.086,29.752 298.172,30.346 298.828 C 31.151 299.717,29.045 302.426,28.035 301.802 C 27.860 301.694,27.958 302.026,28.253 302.539 L 28.789 303.474 29.570 302.750 C 29.999 302.352,30.749 301.773,31.237 301.463 C 31.725 301.153,32.215 300.663,32.326 300.375 C 32.438 300.086,38.132 295.463,44.981 290.102 C 51.829 284.742,59.323 278.867,61.634 277.048 L 65.837 273.740 65.837 272.213 L 65.837 270.686 68.638 268.570 C 73.162 265.153,73.455 262.934,69.727 260.323 C 68.731 259.625,68.370 258.723,68.850 258.130 C 69.198 257.701,69.190 257.661,68.794 257.866 C 68.537 257.999,68.677 257.819,69.105 257.466 C 69.533 257.112,70.023 256.818,70.195 256.811 C 70.602 256.796,69.675 256.198,69.235 256.192 C 69.049 256.189,68.814 256.271,68.711 256.373 M104.552 257.977 C 104.174 258.459,104.182 258.477,104.620 258.135 C 104.893 257.922,105.194 257.827,105.289 257.922 C 105.385 258.018,105.555 257.946,105.668 257.764 C 106.014 257.204,105.007 257.396,104.552 257.977 M101.946 259.922 C 101.840 260.093,101.963 260.233,102.220 260.233 C 102.477 260.233,102.774 260.093,102.879 259.922 C 102.985 259.751,102.862 259.611,102.605 259.611 C 102.348 259.611,102.051 259.751,101.946 259.922 M99.144 262.101 C 99.038 262.272,99.162 262.412,99.419 262.412 C 99.675 262.412,99.972 262.272,100.078 262.101 C 100.184 261.930,100.060 261.790,99.803 261.790 C 99.546 261.790,99.250 261.930,99.144 262.101 M352.167 278.727 C 363.695 287.471,371.509 293.604,371.746 294.094 C 372.363 295.369,375.278 297.588,376.337 297.588 C 379.470 297.588,379.271 300.666,375.899 304.358 C 373.912 306.533,372.092 305.041,373.508 302.399 C 374.499 300.550,373.199 298.806,369.494 297.015 C 366.839 295.731,329.650 267.500,329.650 266.768 C 329.650 265.801,331.509 263.895,332.305 264.047 C 332.677 264.118,341.615 270.724,352.167 278.727 M313.463 267.925 C 311.943 268.484,311.317 270.805,312.396 271.884 C 313.827 273.316,316.940 270.793,315.972 268.985 C 315.422 267.956,314.471 267.555,313.463 267.925 M90.669 270.506 C 90.716 271.131,90.942 271.289,91.289 270.942 C 91.531 270.700,91.216 269.883,90.881 269.883 C 90.739 269.883,90.643 270.163,90.669 270.506 M89.103 271.621 C 88.890 271.849,88.716 272.099,88.716 272.176 C 88.716 272.394,89.953 272.016,90.120 271.746 C 90.391 271.308,89.499 271.198,89.103 271.621 M75.858 272.996 C 74.507 274.019,73.498 274.553,72.915 274.553 C 72.427 274.553,71.545 274.909,70.955 275.344 C 70.096 275.979,69.660 276.099,68.761 275.947 C 67.520 275.738,69.282 274.437,43.766 294.402 C 38.647 298.408,34.121 301.814,33.710 301.970 C 33.299 302.126,32.327 302.780,31.552 303.423 C 30.776 304.066,29.989 304.549,29.804 304.496 C 29.606 304.440,29.632 304.600,29.865 304.881 C 30.085 305.145,30.426 305.258,30.624 305.132 C 30.822 305.006,31.574 304.501,32.294 304.010 C 33.016 303.518,33.816 303.200,34.078 303.300 C 34.822 303.586,34.634 304.598,33.748 305.072 C 33.065 305.438,31.510 307.191,31.808 307.260 C 33.714 307.706,35.557 305.864,35.441 303.630 C 35.349 301.845,34.003 303.035,51.905 289.074 C 69.876 275.058,67.784 276.467,69.388 277.303 C 70.928 278.105,71.829 278.152,72.791 277.478 C 74.082 276.574,73.916 277.341,72.510 278.786 C 71.750 279.566,65.735 284.448,59.144 289.636 C 52.553 294.823,45.198 300.627,42.802 302.533 C 40.405 304.439,38.093 306.076,37.665 306.171 C 37.237 306.265,36.607 306.399,36.265 306.467 C 34.917 306.737,33.488 308.445,34.071 309.089 C 35.029 310.148,36.732 309.945,36.732 308.772 C 36.732 308.613,36.942 308.482,37.198 308.482 C 37.455 308.482,37.665 308.638,37.665 308.827 C 37.665 309.017,37.862 309.096,38.102 309.004 C 38.342 308.912,38.797 309.048,39.114 309.307 C 39.654 309.750,39.655 309.768,39.128 309.601 C 38.800 309.497,38.646 309.551,38.757 309.731 C 38.862 309.900,39.227 310.039,39.570 310.039 C 39.912 310.039,40.114 309.912,40.018 309.757 C 39.922 309.601,40.131 309.550,40.483 309.642 C 41.053 309.791,41.096 309.712,40.887 308.912 C 40.290 306.629,39.522 307.366,56.654 293.780 L 72.685 281.068 74.174 281.265 C 75.273 281.410,75.639 281.362,75.574 281.078 C 75.515 280.821,75.997 280.669,77.031 280.618 C 77.880 280.575,78.627 280.384,78.691 280.192 C 78.755 280.001,79.010 279.844,79.257 279.844 C 79.505 279.844,79.789 279.634,79.887 279.377 C 79.986 279.121,80.190 278.911,80.340 278.911 C 80.941 278.911,83.083 277.173,82.950 276.793 C 82.872 276.570,82.912 276.449,83.039 276.523 C 83.504 276.797,84.788 276.104,84.447 275.763 C 84.218 275.534,83.921 275.560,83.457 275.849 C 82.590 276.391,81.293 275.715,80.623 274.375 C 78.992 271.113,78.524 270.978,75.858 272.996 M88.010 272.659 C 87.917 273.015,87.959 273.307,88.104 273.307 C 88.528 273.307,88.695 272.844,88.427 272.410 C 88.247 272.118,88.134 272.185,88.010 272.659 M86.090 273.978 C 85.689 274.364,85.418 274.445,85.278 274.218 C 85.144 274.002,84.991 274.076,84.858 274.423 C 84.743 274.723,84.781 275.100,84.943 275.262 C 85.283 275.603,86.004 275.261,85.764 274.873 C 85.676 274.730,86.024 274.467,86.537 274.288 C 87.555 273.933,87.679 273.762,87.082 273.541 C 86.868 273.462,86.422 273.659,86.090 273.978 " stroke="none" fill="#505757" fill-rule="evenodd"></path></g></svg>